<svg width="49" height="48" viewBox="0 0 49 48" fill="none" xmlns="http://www.w3.org/2000/svg">
<path d="M3.84809 3.51472C0.333374 7.02944 0.333374 12.6863 0.333374 24C0.333374 35.3137 0.333374 40.9706 3.84809 44.4853C7.31159 47.9488 12.8553 47.9993 23.8424 48C23.7604 47.999 23.6942 47.9322 23.6942 47.85V29.8501C23.6942 29.7672 23.627 29.7001 23.5442 29.7001H18.4834C18.4005 29.7001 18.3334 29.6329 18.3334 29.5501V23.2612C18.3334 23.1784 18.4005 23.1112 18.4834 23.1112H23.5442C23.627 23.1112 23.6942 23.0441 23.6942 22.9612V17.4835C23.6942 13.0611 26.8608 9 34.1575 9C36.6806 9 38.6423 9.18647 39.1612 9.2409C39.2384 9.24901 39.2947 9.3152 39.2925 9.39287L39.1283 15.2614C39.126 15.3431 39.0595 15.408 38.9778 15.4073C38.4444 15.403 36.5279 15.3889 34.4651 15.3889C31.8338 15.3889 31.4123 16.4835 31.4123 18.3001V22.9612C31.4123 23.0441 31.4794 23.1112 31.5623 23.1112H39.1753C39.2612 23.1112 39.3296 23.1832 39.3251 23.2691L38.9962 29.5579C38.992 29.6376 38.9262 29.7001 38.8464 29.7001H31.5623C31.4794 29.7001 31.4123 29.7672 31.4123 29.8501V47.85C31.4123 47.8911 31.3957 47.9284 31.3689 47.9555C38.1685 47.8089 42.1234 47.1805 44.8187 44.4853C48.3334 40.9706 48.3334 35.3137 48.3334 24C48.3334 12.6863 48.3334 7.02944 44.8187 3.51472C41.3039 0 35.6471 0 24.3334 0C13.0197 0 7.36281 0 3.84809 3.51472Z" fill="#757778"/>
</svg>
