<svg width="48" height="48" viewBox="0 0 48 48" fill="none" xmlns="http://www.w3.org/2000/svg">
<path d="M26.1554 32.13C24.3694 32.6787 22.4512 32.5804 20.7285 31.8517C19.6282 31.3881 18.6428 30.6824 17.8431 29.7854C17.0435 28.8884 16.4495 27.8223 16.104 26.664C15.7584 25.5057 15.6699 24.284 15.8449 23.0868C16.0198 21.8896 16.4538 20.7466 17.1155 19.7403C17.7773 18.734 18.6505 17.8892 19.6721 17.267C20.6937 16.6447 21.8385 16.2603 23.0238 16.1415C24.2092 16.0227 25.4058 16.1724 26.5274 16.5799C27.649 16.9874 28.6677 17.6425 29.5102 18.4981C30.8319 19.8365 31.6552 21.5997 31.8396 23.4864C32.0241 25.3732 31.5581 27.2665 30.5214 28.8429C29.4847 30.4194 27.9415 31.5812 26.1554 32.13Z" fill="#757778"/>
<path fill-rule="evenodd" clip-rule="evenodd" d="M3.51472 3.51472C0 7.02944 0 12.6863 0 24C0 35.3137 0 40.9706 3.51472 44.4853C7.02944 48 12.6863 48 24 48C35.3137 48 40.9706 48 44.4853 44.4853C48 40.9706 48 35.3137 48 24C48 12.6863 48 7.02944 44.4853 3.51472C40.9706 0 35.3137 0 24 0C12.6863 0 7.02944 0 3.51472 3.51472ZM19.0629 12.6341C17.5569 13.2679 16.1885 14.197 15.0358 15.3682C12.7079 17.7337 11.4001 20.9418 11.4001 24.287C11.4001 27.6322 12.7079 30.8404 15.0358 33.2059C17.3637 35.5713 20.521 36.9001 23.8131 36.9001C27.1052 36.9001 30.2625 35.5713 32.5904 33.2059C33.743 32.0346 34.6574 30.6442 35.2812 29.1139C35.905 27.5836 36.226 25.9434 36.226 24.287C36.226 22.6307 35.905 20.9905 35.2812 19.4602C34.6574 17.9299 33.743 16.5395 32.5904 15.3682C31.4377 14.197 30.0693 13.2679 28.5633 12.6341C27.0573 12.0002 25.4432 11.6739 23.8131 11.6739C22.183 11.6739 20.5689 12.0002 19.0629 12.6341ZM39.6515 12.5841C39.4933 12.9493 39.2647 13.2786 38.979 13.5524C38.4235 14.0848 37.6857 14.3763 36.9221 14.365C36.1585 14.3537 35.4293 14.0405 34.8893 13.4918C34.3493 12.9431 34.041 12.2021 34.0299 11.4262C34.0188 10.6503 34.3057 9.90057 34.8297 9.33611C35.0991 9.04587 35.4232 8.81351 35.7826 8.6528C36.142 8.49209 36.5295 8.40628 36.9221 8.40046C37.3147 8.39465 37.7045 8.46894 38.0684 8.61894C38.4322 8.76894 38.7628 8.9916 39.0404 9.27373C39.3181 9.55587 39.5372 9.89174 39.6848 10.2615C39.8324 10.6312 39.9056 11.0273 39.8998 11.4262C39.8941 11.8252 39.8097 12.2189 39.6515 12.5841Z" fill="#757778"/>
</svg>
