<svg width="27" height="27" viewBox="0 0 27 27" fill="none" xmlns="http://www.w3.org/2000/svg">
<path fill-rule="evenodd" clip-rule="evenodd" d="M13.4997 0.208252C6.15905 0.208252 0.208008 6.15929 0.208008 13.4999C0.208008 20.8405 6.15905 26.7916 13.4997 26.7916C20.8403 26.7916 26.7913 20.8405 26.7913 13.4999C26.7913 6.15929 20.8403 0.208252 13.4997 0.208252ZM19.261 11.2524C19.3671 11.1312 19.4479 10.9899 19.4986 10.837C19.5492 10.684 19.5688 10.5225 19.5562 10.3619C19.5435 10.2012 19.4989 10.0448 19.4248 9.90166C19.3508 9.75855 19.2489 9.63169 19.1251 9.52854C19.0014 9.42539 18.8582 9.34804 18.7041 9.30104C18.55 9.25403 18.388 9.23832 18.2277 9.25484C18.0675 9.27135 17.9121 9.31975 17.7708 9.39718C17.6295 9.47462 17.5052 9.57954 17.405 9.70575L12.2092 15.9395L9.52063 13.2498C9.29274 13.0297 8.98751 12.9079 8.67069 12.9106C8.35387 12.9134 8.0508 13.0405 7.82677 13.2645C7.60273 13.4885 7.47565 13.7916 7.4729 14.1084C7.47015 14.4253 7.59194 14.7305 7.81205 14.9584L11.437 18.5834C11.5558 18.702 11.6979 18.7946 11.8544 18.8553C12.0109 18.916 12.1784 18.9434 12.346 18.9358C12.5137 18.9282 12.678 18.8857 12.8283 18.8111C12.9787 18.7365 13.1119 18.6313 13.2193 18.5024L19.261 11.2524Z" fill="#FCFAF9"/>
</svg>
