<svg width="416" height="518" viewBox="0 0 416 518" fill="none" xmlns="http://www.w3.org/2000/svg">
<mask id="mask0_4002_2123" style="mask-type:alpha" maskUnits="userSpaceOnUse" x="0" y="0" width="416" height="518">
<path d="M0 97.9696C0 43.8625 39.2342 0 87.632 0H328.368C376.766 0 416 43.8625 416 97.9696C416 131.328 401.087 160.793 378.307 178.485C401.087 196.177 416 225.641 416 259C416 292.359 401.087 321.823 378.307 339.515C401.087 357.207 416 386.672 416 420.03C416 474.138 376.766 518 328.368 518H87.632C39.2342 518 0 474.138 0 420.03C0 386.672 14.9132 357.207 37.6926 339.515C14.9132 321.823 0 292.358 0 259C0 225.641 14.9132 196.177 37.6926 178.485C14.9132 160.793 0 131.328 0 97.9696Z" fill="#FCFAF9"/>
</mask>
<g mask="url(#mask0_4002_2123)">
<rect width="416" height="518" fill="#1B1F21"/>
<path d="M218.511 -291.014C310.752 -225.045 638.778 142.789 492.261 249.028C304.253 385.353 -35.198 141.678 76.1309 17.5354C223.528 -146.826 587.541 316.594 466.77 460.71C345.999 604.826 91.3481 540.512 -195.469 171.916" stroke="#434343" stroke-width="15" stroke-linecap="round" stroke-dasharray="43 42"/>
<path d="M209.765 294.728L92.0527 420.033L357.376 382.867L209.765 294.728Z" fill="#FE6D44"/>
<path fill-rule="evenodd" clip-rule="evenodd" d="M333.652 375.377L327.395 376.254C326.192 376.422 325.353 377.534 325.522 378.738C325.69 379.941 326.802 380.78 328.006 380.611L334.262 379.735C335.465 379.566 336.304 378.454 336.136 377.251C335.967 376.047 334.855 375.209 333.652 375.377ZM308.626 378.883L296.113 380.636C294.91 380.804 294.071 381.916 294.24 383.12C294.408 384.323 295.52 385.162 296.723 384.993L309.236 383.24C310.44 383.072 311.278 381.96 311.11 380.756C310.941 379.553 309.829 378.714 308.626 378.883ZM277.344 383.265L264.831 385.018C263.627 385.186 262.789 386.298 262.957 387.501C263.126 388.705 264.238 389.544 265.441 389.375L277.954 387.622C279.157 387.454 279.996 386.342 279.828 385.138C279.659 383.935 278.547 383.096 277.344 383.265ZM246.061 387.647L233.548 389.4C232.345 389.568 231.506 390.68 231.675 391.883C231.844 393.087 232.956 393.926 234.159 393.757L246.672 392.004C247.875 391.836 248.714 390.724 248.545 389.52C248.377 388.317 247.265 387.478 246.061 387.647ZM214.779 392.029L202.266 393.781C201.063 393.95 200.224 395.062 200.393 396.265C200.561 397.469 201.673 398.307 202.877 398.139L215.389 396.386C216.593 396.218 217.432 395.105 217.263 393.902C217.094 392.699 215.982 391.86 214.779 392.029ZM183.497 396.411L170.984 398.163C169.781 398.332 168.942 399.444 169.11 400.647C169.279 401.851 170.391 402.689 171.594 402.521L184.107 400.768C185.31 400.6 186.149 399.487 185.981 398.284C185.812 397.081 184.7 396.242 183.497 396.411ZM152.215 400.793L139.702 402.545C138.498 402.714 137.66 403.826 137.828 405.029C137.997 406.233 139.109 407.071 140.312 406.903L152.825 405.15C154.028 404.982 154.867 403.869 154.698 402.666C154.53 401.463 153.418 400.624 152.215 400.793ZM120.932 405.175L114.676 406.051C113.473 406.22 112.634 407.332 112.802 408.535C112.971 409.738 114.083 410.577 115.286 410.408L121.543 409.532C122.746 409.363 123.585 408.251 123.416 407.048C123.248 405.845 122.136 405.006 120.932 405.175Z" fill="#1B1F21"/>
<path d="M213.205 313.891L357.376 382.865L332.875 207.959L213.205 313.891Z" fill="#FE6D44"/>
<path d="M213.205 313.891L357.376 382.865L332.875 207.959L213.205 313.891Z" fill="#FCFAF9" fill-opacity="0.12"/>
<path fill-rule="evenodd" clip-rule="evenodd" d="M347.561 367.998C348.222 367.521 348.565 366.717 348.452 365.909L347.446 358.728C347.277 357.525 346.165 356.686 344.962 356.855C343.759 357.023 342.92 358.135 343.088 359.339L343.517 362.395L340.885 361.093C339.796 360.554 338.476 361 337.937 362.089C337.399 363.178 337.844 364.498 338.933 365.037L345.297 368.186C346.028 368.548 346.899 368.475 347.561 367.998ZM343.561 346.85C344.764 346.682 345.603 345.57 345.434 344.367L343.422 330.005C343.254 328.802 342.142 327.963 340.938 328.131C339.735 328.3 338.896 329.412 339.065 330.615L341.077 344.977C341.245 346.18 342.357 347.019 343.561 346.85ZM339.537 318.127C340.74 317.959 341.579 316.847 341.411 315.643L339.399 301.282C339.23 300.079 338.118 299.24 336.915 299.408C335.712 299.577 334.873 300.689 335.041 301.892L337.053 316.254C337.222 317.457 338.334 318.296 339.537 318.127ZM335.514 289.404C336.717 289.236 337.556 288.124 337.387 286.92L335.375 272.559C335.207 271.355 334.095 270.517 332.892 270.685C331.688 270.854 330.849 271.966 331.018 273.169L333.03 287.531C333.198 288.734 334.31 289.573 335.514 289.404ZM331.49 260.681C332.693 260.513 333.532 259.4 333.364 258.197L332.358 251.016C332.189 249.813 331.077 248.974 329.874 249.143C328.671 249.311 327.832 250.423 328 251.627L329.006 258.808C329.175 260.011 330.287 260.85 331.49 260.681ZM329.153 357.742C329.692 356.653 329.246 355.333 328.157 354.795L315.43 348.496C314.341 347.957 313.021 348.403 312.482 349.492C311.943 350.581 312.389 351.901 313.478 352.44L326.206 358.738C327.295 359.277 328.614 358.831 329.153 357.742ZM303.698 345.145C304.237 344.056 303.791 342.736 302.702 342.197L289.974 335.899C288.885 335.36 287.566 335.806 287.027 336.895C286.488 337.984 286.934 339.304 288.023 339.842L300.75 346.141C301.839 346.68 303.159 346.234 303.698 345.145ZM278.243 332.548C278.782 331.459 278.336 330.139 277.247 329.6L264.519 323.302C263.43 322.763 262.11 323.209 261.572 324.298C261.033 325.387 261.479 326.706 262.568 327.245L275.295 333.544C276.384 334.083 277.704 333.637 278.243 332.548ZM252.787 319.951C253.326 318.862 252.88 317.542 251.791 317.003L245.428 313.854C244.339 313.315 243.019 313.761 242.48 314.85C241.941 315.939 242.387 317.259 243.476 317.797L249.84 320.947C250.929 321.486 252.249 321.04 252.787 319.951Z" fill="#1B1F21"/>
<path d="M211.723 314.101L92.0528 420.033L67.5523 245.127L211.723 314.101Z" fill="#FE6D44"/>
<path d="M211.723 314.101L92.0528 420.033L67.5523 245.127L211.723 314.101Z" fill="#FCFAF9" fill-opacity="0.12"/>
<path fill-rule="evenodd" clip-rule="evenodd" d="M78.3168 259.405C79.5199 259.234 80.6331 260.072 80.8034 261.275L81.7865 268.22C81.9567 269.423 81.1195 270.536 79.9165 270.707C78.7134 270.877 77.6002 270.04 77.4299 268.837L76.4468 261.891C76.2766 260.688 77.1138 259.575 78.3168 259.405ZM81.2659 280.241C82.469 280.071 83.5823 280.908 83.7525 282.111L85.7186 296.002C85.8889 297.205 85.0517 298.319 83.8486 298.489C82.6456 298.659 81.5323 297.822 81.362 296.619L79.396 282.728C79.2257 281.525 80.0629 280.411 81.2659 280.241ZM85.1981 308.023C86.4011 307.853 87.5144 308.69 87.6847 309.893L89.6508 323.785C89.8211 324.988 88.9838 326.101 87.7808 326.271C86.5778 326.441 85.4645 325.604 85.2942 324.401L83.3281 310.51C83.1579 309.307 83.9951 308.194 85.1981 308.023ZM89.1303 335.806C90.3333 335.635 91.4466 336.473 91.6169 337.676L93.583 351.567C93.7532 352.77 92.916 353.883 91.713 354.053C90.5099 354.224 89.3966 353.386 89.2264 352.183L87.2603 338.292C87.09 337.089 87.9272 335.976 89.1303 335.806ZM93.0624 363.588C94.2655 363.418 95.3788 364.255 95.549 365.458L97.5151 379.349C97.6854 380.552 96.8482 381.665 95.6451 381.836C94.4421 382.006 93.3288 381.169 93.1585 379.966L91.1925 366.074C91.0222 364.871 91.8594 363.758 93.0624 363.588ZM96.9946 391.37C98.1976 391.2 99.3109 392.037 99.4812 393.24L99.8817 396.07L102.06 394.089C102.959 393.272 104.35 393.338 105.167 394.237C105.985 395.136 105.919 396.528 105.02 397.345L99.7659 402.122C99.1629 402.67 98.3062 402.84 97.5395 402.563C96.7729 402.287 96.2219 401.609 96.1077 400.802L95.1246 393.857C94.9544 392.654 95.7916 391.54 96.9946 391.37ZM112.419 387.644C111.602 386.745 111.668 385.354 112.567 384.536L123.074 374.983C123.973 374.166 125.364 374.232 126.182 375.131C126.999 376.03 126.933 377.421 126.034 378.239L115.527 387.792C114.628 388.609 113.236 388.543 112.419 387.644ZM133.433 368.538C132.616 367.639 132.682 366.247 133.581 365.43L144.088 355.877C144.987 355.059 146.379 355.125 147.196 356.024C148.013 356.923 147.947 358.315 147.048 359.132L136.541 368.685C135.642 369.503 134.251 369.437 133.433 368.538ZM154.448 349.431C153.63 348.532 153.696 347.141 154.595 346.323L165.103 336.77C166.002 335.953 167.393 336.019 168.21 336.918C169.028 337.817 168.962 339.208 168.063 340.026L157.555 349.579C156.656 350.396 155.265 350.33 154.448 349.431ZM175.462 330.325C174.645 329.426 174.711 328.034 175.61 327.217L180.863 322.44C181.762 321.623 183.154 321.689 183.971 322.588C184.788 323.487 184.722 324.878 183.823 325.696L178.57 330.472C177.671 331.29 176.279 331.224 175.462 330.325Z" fill="#1B1F21"/>
<path d="M215.163 333.265L67.5523 245.126L332.875 207.96L215.163 333.265Z" fill="#FE6D44"/>
<path d="M215.163 333.265L67.5523 245.126L332.875 207.96L215.163 333.265Z" fill="#FCFAF9" fill-opacity="0.25"/>
<path fill-rule="evenodd" clip-rule="evenodd" d="M320.89 205.882C321.896 206.827 321.946 208.409 321 209.416L316.754 213.935C315.809 214.942 314.227 214.991 313.221 214.046C312.214 213.1 312.165 211.518 313.11 210.512L317.356 205.992C318.301 204.986 319.884 204.936 320.89 205.882ZM78.5052 239.835C79.213 238.649 80.7478 238.262 81.9333 238.97L87.2578 242.149C88.4433 242.857 88.8304 244.392 88.1226 245.577C87.4148 246.763 85.8799 247.15 84.6945 246.442L79.37 243.263C78.1845 242.555 77.7973 241.02 78.5052 239.835ZM307.499 220.137C308.505 221.082 308.554 222.664 307.609 223.671L299.117 232.71C298.172 233.717 296.59 233.766 295.583 232.821C294.577 231.875 294.527 230.293 295.473 229.287L303.965 220.247C304.91 219.241 306.492 219.191 307.499 220.137ZM95.2978 249.861C96.0057 248.676 97.5405 248.289 98.7259 248.997L109.375 255.355C110.56 256.063 110.948 257.598 110.24 258.783C109.532 259.969 107.997 260.356 106.812 259.648L96.1626 253.29C94.9772 252.582 94.59 251.047 95.2978 249.861ZM289.861 238.912C290.868 239.857 290.917 241.439 289.972 242.446L281.48 251.485C280.534 252.492 278.952 252.541 277.946 251.596C276.94 250.65 276.89 249.068 277.836 248.062L286.328 239.022C287.273 238.016 288.855 237.966 289.861 238.912ZM117.415 263.068C118.123 261.882 119.658 261.495 120.843 262.203L131.492 268.561C132.678 269.269 133.065 270.804 132.357 271.99C131.649 273.175 130.114 273.562 128.929 272.854L118.28 266.496C117.094 265.788 116.707 264.253 117.415 263.068ZM272.224 257.687C273.23 258.632 273.28 260.214 272.335 261.221L263.842 270.26C262.897 271.267 261.315 271.316 260.309 270.371C259.302 269.425 259.253 267.843 260.198 266.837L268.69 257.797C269.636 256.791 271.218 256.741 272.224 257.687ZM139.532 276.274C140.24 275.088 141.775 274.701 142.96 275.409L153.609 281.768C154.795 282.476 155.182 284.01 154.474 285.196C153.766 286.381 152.231 286.768 151.046 286.061L140.397 279.702C139.211 278.994 138.824 277.459 139.532 276.274ZM254.587 276.462C255.593 277.407 255.643 278.989 254.697 279.995L246.205 289.035C245.26 290.042 243.678 290.091 242.671 289.146C241.665 288.2 241.616 286.618 242.561 285.612L251.053 276.572C251.998 275.566 253.58 275.516 254.587 276.462ZM161.649 289.48C162.357 288.295 163.892 287.908 165.077 288.615L175.726 294.974C176.912 295.682 177.299 297.217 176.591 298.402C175.883 299.588 174.349 299.975 173.163 299.267L162.514 292.908C161.329 292.2 160.941 290.666 161.649 289.48ZM236.95 295.237C237.956 296.182 238.005 297.764 237.06 298.77L228.568 307.81C227.623 308.817 226.04 308.866 225.034 307.921C224.028 306.975 223.978 305.393 224.924 304.387L233.416 295.347C234.361 294.341 235.943 294.291 236.95 295.237ZM183.766 302.686C184.474 301.501 186.009 301.114 187.195 301.822L197.844 308.18C199.029 308.888 199.416 310.423 198.708 311.608C198.001 312.794 196.466 313.181 195.28 312.473L184.631 306.115C183.446 305.407 183.059 303.872 183.766 302.686ZM205.884 315.893C206.591 314.707 208.126 314.32 209.312 315.028L212.909 317.176L215.778 314.122C216.724 313.116 218.306 313.066 219.312 314.012C220.319 314.957 220.368 316.539 219.423 317.545L215.177 322.065C214.373 322.921 213.081 323.102 212.073 322.5L206.748 319.321C205.563 318.613 205.176 317.078 205.884 315.893Z" fill="#1B1F21"/>
<circle cx="329.07" cy="213.419" r="30.4847" transform="rotate(-7.974 329.07 213.419)" fill="#57ACBC"/>
<path d="M341.111 218.071L341.93 223.919L321.804 226.739L320.985 220.89L327.306 220.005L325.651 208.195L319.33 209.08L318.713 204.675C320.431 204.331 322.308 203.617 324.344 202.531C326.376 201.421 328.121 200.234 329.579 198.971L332.177 198.608L335.023 218.924L341.111 218.071Z" fill="#FFFFFE"/>
<g opacity="0.62" filter="url(#filter0_f_4002_2123)">
<path d="M217.11 113.019L168 134.695L248.802 156.346L217.11 113.019Z" fill="#FE6D44"/>
<path fill-rule="evenodd" clip-rule="evenodd" d="M242.901 151.28L240.996 150.77C240.617 150.668 240.228 150.893 240.126 151.271C240.025 151.65 240.25 152.039 240.628 152.141L242.534 152.651C242.912 152.753 243.301 152.528 243.403 152.149C243.504 151.771 243.28 151.382 242.901 151.28ZM235.28 149.238L231.469 148.217C231.09 148.115 230.701 148.34 230.6 148.719C230.498 149.097 230.723 149.487 231.101 149.588L234.912 150.609C235.291 150.711 235.68 150.486 235.781 150.107C235.883 149.729 235.658 149.339 235.28 149.238ZM225.753 146.685L221.942 145.664C221.563 145.563 221.174 145.787 221.073 146.166C220.971 146.545 221.196 146.934 221.575 147.035L225.385 148.056C225.764 148.158 226.153 147.933 226.255 147.555C226.356 147.176 226.131 146.787 225.753 146.685ZM216.226 144.133L212.415 143.111C212.037 143.01 211.647 143.235 211.546 143.613C211.444 143.992 211.669 144.381 212.048 144.483L215.858 145.504C216.237 145.605 216.626 145.38 216.728 145.002C216.829 144.623 216.605 144.234 216.226 144.133ZM206.699 141.58L202.888 140.559C202.51 140.457 202.12 140.682 202.019 141.061C201.918 141.439 202.142 141.828 202.521 141.93L206.332 142.951C206.71 143.052 207.099 142.828 207.201 142.449C207.302 142.07 207.078 141.681 206.699 141.58ZM197.172 139.027L193.361 138.006C192.983 137.905 192.594 138.129 192.492 138.508C192.391 138.887 192.615 139.276 192.994 139.377L196.805 140.398C197.183 140.5 197.573 140.275 197.674 139.896C197.776 139.518 197.551 139.129 197.172 139.027ZM187.645 136.474L183.835 135.453C183.456 135.352 183.067 135.577 182.965 135.955C182.864 136.334 183.089 136.723 183.467 136.824L187.278 137.846C187.657 137.947 188.046 137.722 188.147 137.344C188.249 136.965 188.024 136.576 187.645 136.474ZM178.119 133.922L176.213 133.411C175.835 133.31 175.445 133.534 175.344 133.913C175.242 134.292 175.467 134.681 175.846 134.782L177.751 135.293C178.13 135.394 178.519 135.17 178.62 134.791C178.722 134.412 178.497 134.023 178.119 133.922Z" fill="#1B1F21"/>
<path d="M215.763 118.948L248.802 156.346L263.075 103.079L215.763 118.948Z" fill="#FE6D44"/>
<path d="M215.763 118.948L248.802 156.346L263.075 103.079L215.763 118.948Z" fill="#FCFAF9" fill-opacity="0.12"/>
<path fill-rule="evenodd" clip-rule="evenodd" d="M247.798 150.898C248.055 150.839 248.258 150.644 248.326 150.39L248.912 148.203C249.013 147.824 248.788 147.435 248.41 147.333C248.031 147.232 247.642 147.457 247.541 147.835L247.302 148.725L246.733 148.062C246.477 147.765 246.029 147.731 245.732 147.987C245.435 148.242 245.401 148.691 245.656 148.988L247.102 150.669C247.274 150.868 247.541 150.956 247.798 150.898ZM249.214 144.331C249.593 144.432 249.982 144.208 250.084 143.829L251.256 139.455C251.357 139.077 251.132 138.687 250.754 138.586C250.375 138.485 249.986 138.709 249.884 139.088L248.712 143.462C248.611 143.84 248.836 144.229 249.214 144.331ZM251.558 135.583C251.937 135.685 252.326 135.46 252.428 135.082L253.599 130.708C253.701 130.329 253.476 129.94 253.098 129.839C252.719 129.737 252.33 129.962 252.228 130.34L251.056 134.714C250.955 135.093 251.18 135.482 251.558 135.583ZM253.902 126.836C254.281 126.937 254.67 126.713 254.771 126.334L255.943 121.96C256.045 121.582 255.82 121.193 255.441 121.091C255.063 120.99 254.674 121.214 254.572 121.593L253.4 125.967C253.299 126.345 253.523 126.735 253.902 126.836ZM256.246 118.089C256.625 118.19 257.014 117.965 257.115 117.587L257.701 115.4C257.803 115.021 257.578 114.632 257.199 114.531C256.821 114.429 256.432 114.654 256.33 115.032L255.744 117.219C255.643 117.598 255.867 117.987 256.246 118.089ZM243.766 145.701C244.063 145.446 244.097 144.998 243.841 144.7L240.95 141.339C240.695 141.041 240.246 141.008 239.949 141.263C239.652 141.519 239.618 141.967 239.874 142.264L242.765 145.626C243.021 145.923 243.469 145.957 243.766 145.701ZM237.984 138.978C238.281 138.722 238.315 138.274 238.059 137.977L235.168 134.615C234.912 134.318 234.464 134.284 234.167 134.54C233.87 134.795 233.836 135.243 234.091 135.541L236.983 138.902C237.238 139.2 237.686 139.233 237.984 138.978ZM232.201 132.254C232.498 131.999 232.532 131.55 232.276 131.253L229.385 127.891C229.13 127.594 228.682 127.561 228.384 127.816C228.087 128.072 228.053 128.52 228.309 128.817L231.2 132.179C231.456 132.476 231.904 132.51 232.201 132.254ZM226.419 125.531C226.716 125.275 226.75 124.827 226.494 124.53L225.048 122.849C224.793 122.552 224.345 122.518 224.047 122.773C223.75 123.029 223.717 123.477 223.972 123.774L225.418 125.455C225.673 125.753 226.121 125.786 226.419 125.531Z" fill="#1B1F21"/>
<path d="M215.312 118.827L168 134.695L182.273 81.4289L215.312 118.827Z" fill="#FE6D44"/>
<path d="M215.312 118.827L168 134.695L182.273 81.4289L215.312 118.827Z" fill="#FCFAF9" fill-opacity="0.12"/>
<path fill-rule="evenodd" clip-rule="evenodd" d="M183.633 86.8226C184.012 86.9235 184.237 87.3123 184.136 87.6911L183.572 89.8076C183.471 90.1864 183.082 90.4116 182.704 90.3107C182.325 90.2098 182.1 89.8209 182.201 89.4421L182.764 87.3257C182.865 86.9469 183.254 86.7217 183.633 86.8226ZM181.941 93.1719C182.32 93.2729 182.545 93.6617 182.445 94.0405L181.317 98.2734C181.216 98.6522 180.827 98.8774 180.448 98.7765C180.069 98.6756 179.844 98.2868 179.945 97.908L181.073 93.6751C181.174 93.2963 181.563 93.071 181.941 93.1719ZM179.686 101.638C180.065 101.739 180.29 102.128 180.189 102.506L179.061 106.739C178.96 107.118 178.572 107.343 178.193 107.242C177.814 107.141 177.589 106.753 177.69 106.374L178.817 102.141C178.918 101.762 179.307 101.537 179.686 101.638ZM177.431 110.104C177.809 110.205 178.035 110.593 177.934 110.972L176.806 115.205C176.705 115.584 176.316 115.809 175.937 115.708C175.559 115.607 175.333 115.218 175.434 114.84L176.562 110.607C176.663 110.228 177.052 110.003 177.431 110.104ZM175.175 118.569C175.554 118.67 175.779 119.059 175.678 119.438L174.55 123.671C174.45 124.05 174.061 124.275 173.682 124.174C173.303 124.073 173.078 123.684 173.179 123.305L174.307 119.073C174.407 118.694 174.796 118.469 175.175 118.569ZM172.92 127.035C173.298 127.136 173.524 127.525 173.423 127.904L173.204 128.724L174.031 128.435C174.401 128.305 174.806 128.5 174.935 128.87C175.065 129.24 174.87 129.645 174.5 129.775L172.408 130.507C172.159 130.594 171.884 130.537 171.691 130.358C171.498 130.18 171.419 129.909 171.487 129.655L172.051 127.538C172.152 127.16 172.541 126.934 172.92 127.035ZM177.78 127.874C177.651 127.504 177.846 127.099 178.216 126.969L182.4 125.503C182.77 125.374 183.175 125.569 183.305 125.939C183.434 126.308 183.24 126.713 182.87 126.843L178.685 128.309C178.315 128.438 177.91 128.243 177.78 127.874ZM186.15 124.942C186.02 124.572 186.215 124.167 186.585 124.037L190.77 122.572C191.14 122.442 191.545 122.637 191.674 123.007C191.804 123.377 191.609 123.782 191.239 123.911L187.054 125.377C186.684 125.507 186.279 125.312 186.15 124.942ZM194.519 122.01C194.39 121.64 194.585 121.236 194.955 121.106L199.139 119.64C199.509 119.511 199.914 119.705 200.044 120.075C200.174 120.445 199.979 120.85 199.609 120.98L195.424 122.446C195.054 122.575 194.649 122.38 194.519 122.01ZM202.889 119.079C202.759 118.709 202.954 118.304 203.324 118.174L205.417 117.442C205.787 117.312 206.192 117.507 206.321 117.877C206.451 118.247 206.256 118.652 205.886 118.781L203.794 119.514C203.424 119.644 203.019 119.449 202.889 119.079Z" fill="#1B1F21"/>
<path d="M213.965 124.756L182.273 81.4287L263.075 103.08L213.965 124.756Z" fill="#FE6D44"/>
<path d="M213.965 124.756L182.273 81.4287L263.075 103.08L213.965 124.756Z" fill="#FCFAF9" fill-opacity="0.25"/>
<path fill-rule="evenodd" clip-rule="evenodd" d="M259.907 101.011C260.087 101.419 259.902 101.895 259.495 102.075L257.723 102.856C257.316 103.036 256.839 102.852 256.66 102.444C256.48 102.037 256.664 101.561 257.072 101.381L258.843 100.599C259.251 100.419 259.727 100.603 259.907 101.011ZM186.051 81.2214C186.41 80.9584 186.915 81.0367 187.178 81.3962L188.321 82.9591C188.584 83.3186 188.506 83.8232 188.146 84.0862C187.787 84.3492 187.282 84.2709 187.019 83.9114L185.876 82.3485C185.613 81.989 185.691 81.4844 186.051 81.2214ZM254.32 103.477C254.5 103.884 254.315 104.361 253.908 104.54L250.365 106.104C249.957 106.284 249.481 106.1 249.301 105.692C249.121 105.285 249.306 104.808 249.713 104.629L253.256 103.065C253.664 102.885 254.14 103.069 254.32 103.477ZM189.656 86.1504C190.016 85.8874 190.52 85.9657 190.783 86.3252L193.07 89.4509C193.333 89.8105 193.255 90.3151 192.895 90.5781C192.536 90.8411 192.031 90.7628 191.768 90.4033L189.482 87.2776C189.219 86.918 189.297 86.4134 189.656 86.1504ZM246.961 106.725C247.141 107.132 246.957 107.608 246.549 107.788L243.006 109.352C242.599 109.532 242.123 109.347 241.943 108.94C241.763 108.532 241.948 108.056 242.355 107.876L245.898 106.313C246.305 106.133 246.782 106.317 246.961 106.725ZM194.405 92.6423C194.764 92.3793 195.269 92.4576 195.532 92.8171L197.818 95.9428C198.081 96.3023 198.003 96.807 197.644 97.0699C197.284 97.3329 196.779 97.2547 196.516 96.8951L194.23 93.7694C193.967 93.4099 194.045 92.9053 194.405 92.6423ZM239.603 109.973C239.783 110.38 239.598 110.856 239.191 111.036L235.648 112.6C235.241 112.78 234.764 112.595 234.584 112.188C234.405 111.78 234.589 111.304 234.997 111.124L238.54 109.56C238.947 109.381 239.423 109.565 239.603 109.973ZM199.154 99.1341C199.513 98.8712 200.018 98.9494 200.281 99.3089L202.567 102.435C202.83 102.794 202.752 103.299 202.392 103.562C202.033 103.825 201.528 103.747 201.265 103.387L198.979 100.261C198.716 99.9018 198.794 99.3971 199.154 99.1341ZM232.245 113.22C232.425 113.628 232.24 114.104 231.833 114.284L228.29 115.848C227.882 116.028 227.406 115.843 227.226 115.436C227.046 115.028 227.231 114.552 227.638 114.372L231.181 112.808C231.589 112.628 232.065 112.813 232.245 113.22ZM203.902 105.626C204.262 105.363 204.766 105.441 205.029 105.801L207.316 108.927C207.579 109.286 207.5 109.791 207.141 110.054C206.781 110.317 206.277 110.238 206.014 109.879L203.727 106.753C203.464 106.394 203.543 105.889 203.902 105.626ZM224.886 116.468C225.066 116.876 224.882 117.352 224.474 117.532L220.931 119.096C220.524 119.275 220.048 119.091 219.868 118.683C219.688 118.276 219.872 117.8 220.28 117.62L223.823 116.056C224.23 115.876 224.707 116.061 224.886 116.468ZM208.651 112.118C209.01 111.855 209.515 111.933 209.778 112.293L212.064 115.418C212.327 115.778 212.249 116.283 211.889 116.546C211.53 116.809 211.025 116.73 210.762 116.371L208.476 113.245C208.213 112.886 208.291 112.381 208.651 112.118ZM213.399 118.61C213.759 118.347 214.264 118.425 214.527 118.785L215.287 119.824L216.465 119.304C216.872 119.124 217.348 119.308 217.528 119.716C217.708 120.124 217.523 120.6 217.116 120.78L215.344 121.561C214.998 121.714 214.591 121.606 214.368 121.3L213.225 119.737C212.962 119.377 213.04 118.873 213.399 118.61Z" fill="#1B1F21"/>
</g>
</g>
<defs>
<filter id="filter0_f_4002_2123" x="160" y="73.0657" width="111.075" height="91.2805" filterUnits="userSpaceOnUse" color-interpolation-filters="sRGB">
<feFlood flood-opacity="0" result="BackgroundImageFix"/>
<feBlend mode="normal" in="SourceGraphic" in2="BackgroundImageFix" result="shape"/>
<feGaussianBlur stdDeviation="4" result="effect1_foregroundBlur_4002_2123"/>
</filter>
</defs>
</svg>
