<svg width="304" height="400" viewBox="0 0 304 400" fill="none" xmlns="http://www.w3.org/2000/svg">
<mask id="mask0_3061_1288" style="mask-type:alpha" maskUnits="userSpaceOnUse" x="0" y="0" width="304" height="400">
<path fill-rule="evenodd" clip-rule="evenodd" d="M100 0C44.7715 0 0 44.7715 0 100V300C0 355.228 44.7715 400 100 400C119.046 400 136.849 394.675 152 385.434C167.151 394.675 184.954 400 204 400C259.228 400 304 355.228 304 300V100C304 44.7715 259.228 0 204 0C184.954 0 167.151 5.3246 152 14.5664C136.849 5.3246 119.046 0 100 0Z" fill="#1B1F21"/>
</mask>
<g mask="url(#mask0_3061_1288)">
<path fill-rule="evenodd" clip-rule="evenodd" d="M100 0C44.7715 0 0 44.7715 0 100V300C0 355.228 44.7715 400 100 400C119.046 400 136.849 394.675 152 385.434C167.151 394.675 184.954 400 204 400C259.228 400 304 355.228 304 300V100C304 44.7715 259.228 0 204 0C184.954 0 167.151 5.3246 152 14.5664C136.849 5.3246 119.046 0 100 0Z" fill="#1B1F21"/>
<path fill-rule="evenodd" clip-rule="evenodd" d="M293.827 -25.3543C288.134 -34.0041 282.208 -42.6278 276.117 -51.1712C274.273 -53.7577 275.074 -57.4847 277.908 -59.4957C280.741 -61.5067 284.532 -61.0402 286.377 -58.4537C292.538 -49.812 298.538 -41.0802 304.309 -32.313C306.055 -29.6593 305.124 -25.9504 302.23 -24.0288C299.335 -22.1073 295.573 -22.7007 293.827 -25.3543ZM266.467 -74.9994C263.688 -72.9144 259.875 -73.273 257.95 -75.8002C251.564 -84.1822 245.078 -92.4268 238.561 -100.479C236.562 -102.949 237.151 -106.696 239.877 -108.848C242.603 -111.001 246.433 -110.743 248.433 -108.272C255.011 -100.144 261.561 -91.8183 268.012 -83.3506C269.937 -80.8233 269.246 -77.0844 266.467 -74.9994ZM312.495 -7.70448C315.457 -9.51802 319.179 -8.77623 320.808 -6.04762C326.358 3.24924 331.577 12.5313 336.384 21.7335C337.857 24.5526 336.584 28.1912 333.541 29.8604C330.498 31.5296 326.837 30.5973 325.365 27.7781C320.66 18.7719 315.54 9.6646 310.081 0.519789C308.452 -2.2088 309.533 -5.89095 312.495 -7.70448ZM227.542 -123.669C224.867 -121.456 221.023 -121.62 218.956 -124.036C211.98 -132.19 205.049 -140.058 198.247 -147.57C196.113 -149.928 196.507 -153.684 199.128 -155.959C201.749 -158.233 205.604 -158.165 207.739 -155.807C214.607 -148.222 221.603 -140.28 228.644 -132.05C230.711 -129.634 230.217 -125.882 227.542 -123.669ZM341.885 47.2471C345.021 45.7738 348.586 46.9518 349.848 49.8782C354.277 60.1484 358.063 70.2496 361.073 80.0814C362.01 83.1422 360.137 86.5709 356.889 87.7396C353.641 88.9083 350.248 87.3745 349.311 84.3137C346.434 74.9167 342.791 65.1858 338.491 55.2133C337.229 52.2869 338.748 48.7203 341.885 47.2471ZM185.929 -170.118C183.368 -167.779 179.503 -167.742 177.296 -170.036C169.539 -178.101 162.104 -185.539 155.142 -192.233C152.845 -194.442 152.993 -198.194 155.474 -200.614C157.954 -203.034 161.826 -203.205 164.124 -200.996C171.194 -194.198 178.726 -186.661 186.57 -178.507C188.777 -176.213 188.49 -172.457 185.929 -170.118ZM141.12 -213.715C138.782 -211.168 134.907 -210.774 132.466 -212.835C128.001 -216.604 123.982 -219.784 120.476 -222.329C117.882 -224.213 117.537 -227.913 119.706 -230.594C121.874 -233.275 125.734 -233.921 128.328 -232.038C132.101 -229.298 136.331 -225.946 140.936 -222.059C143.376 -219.998 143.459 -216.263 141.12 -213.715ZM361.208 106.789C364.564 106.127 367.612 108.191 368.016 111.4C369.519 123.358 369.461 134.81 367.438 145.474C366.819 148.734 363.623 151.111 360.3 150.784C356.977 150.456 354.784 147.548 355.402 144.288C357.146 135.1 357.256 124.888 355.861 113.798C355.458 110.589 357.851 107.451 361.208 106.789ZM352.003 169.541C354.589 171.434 354.92 175.136 352.743 177.811C348.859 182.581 344.262 186.921 338.928 190.793C333.91 194.435 328.75 197.725 323.465 200.678C322.525 201.204 321.524 201.479 320.544 201.526C324.256 210.254 327.545 218.933 330.359 227.496C331.357 230.534 329.549 233.991 326.319 235.217C323.089 236.444 319.661 234.975 318.663 231.937C315.267 221.601 311.135 211.04 306.358 200.383C305.055 197.477 306.527 193.895 309.646 192.383C311.737 191.37 314.036 191.544 315.717 192.643C316.289 191.798 317.072 191.061 318.037 190.522C322.853 187.83 327.556 184.831 332.131 181.511C336.539 178.311 340.264 174.781 343.378 170.956C345.555 168.282 349.417 167.648 352.003 169.541ZM276.261 133.328C279.168 131.425 282.923 132.044 284.649 134.711C291.009 144.535 296.976 154.504 302.478 164.517C304.009 167.303 302.807 170.959 299.793 172.683C296.779 174.406 293.095 173.544 291.564 170.757C286.189 160.975 280.351 151.224 274.124 141.603C272.398 138.936 273.354 135.231 276.261 133.328ZM263.695 115.255C260.898 117.314 257.091 116.918 255.194 114.37C248.411 105.261 241.323 96.3741 233.998 87.8039C231.933 85.387 232.428 81.6345 235.104 79.4225C237.78 77.2106 241.624 77.3767 243.689 79.7936C251.169 88.5454 258.404 97.6163 265.326 106.912C267.223 109.46 266.493 113.195 263.695 115.255ZM220.237 63.1828C217.699 65.5452 213.832 65.6202 211.599 63.3502C203.475 55.0913 195.172 47.2915 186.773 40.0571C184.353 37.9732 184.306 34.2344 186.667 31.7063C189.028 29.1781 192.904 28.8179 195.323 30.9017C203.96 38.3407 212.475 46.3424 220.79 54.7949C223.023 57.0649 222.776 60.8202 220.237 63.1828ZM169.189 18.0266C167.064 20.7379 163.21 21.4449 160.581 19.6057C150.835 12.7874 141.099 6.8727 131.494 2.00775C128.606 0.545009 127.689 -3.01736 129.447 -5.949C131.204 -8.88068 134.969 -10.0714 137.857 -8.60872C147.993 -3.47503 158.173 2.718 168.277 9.78703C170.906 11.6262 171.314 15.3152 169.189 18.0266ZM331.907 256.766C335.24 255.949 338.401 257.859 338.967 261.032C341.205 273.583 342.16 285.723 341.594 297.186C341.432 300.46 338.563 303.21 335.187 303.327C331.81 303.445 329.204 300.886 329.366 297.612C329.882 287.17 329.02 275.891 326.897 263.991C326.332 260.818 328.575 257.583 331.907 256.766ZM295.338 206.986C296.067 210.115 293.982 213.439 290.681 214.411C279.219 217.785 267.447 219.909 255.531 220.931C252.15 221.22 249.397 218.81 249.381 215.546C249.365 212.283 252.093 209.402 255.473 209.113C266.6 208.159 277.501 206.183 288.042 203.08C291.343 202.108 294.609 203.857 295.338 206.986ZM108.415 -14.2309C107.287 -11.0618 103.789 -9.16632 100.602 -9.99733C88.7999 -13.0751 77.5914 -14.1055 67.1772 -12.9216C63.7986 -12.5375 60.9675 -14.8637 60.8537 -18.1174C60.7399 -21.3711 63.3865 -24.3202 66.7652 -24.7043C79.0338 -26.0991 91.785 -24.8387 104.688 -21.4739C107.875 -20.6429 109.544 -17.4001 108.415 -14.2309ZM330.288 325.903C333.361 327.012 334.712 330.411 333.305 333.494C330.514 339.609 326.985 345.327 322.657 350.553C318.48 355.598 314.08 360.324 309.464 364.721C306.954 367.111 303.084 367.233 300.819 364.993C298.555 362.753 298.754 358.999 301.264 356.608C305.478 352.594 309.514 348.261 313.363 343.612C316.899 339.342 319.826 334.62 322.174 329.476C323.581 326.393 327.214 324.793 330.288 325.903ZM228.355 215.54C227.805 218.806 224.655 221.242 221.319 220.981C209.956 220.093 198.579 218.347 187.318 215.856C184.092 215.143 182.295 211.972 183.305 208.775C184.315 205.577 187.749 203.563 190.975 204.276C201.738 206.656 212.558 208.314 223.312 209.154C226.647 209.415 228.905 212.274 228.355 215.54ZM38.4821 -9.69497C40.3226 -7.10585 39.516 -3.37943 36.6804 -1.37178C32.2428 1.77009 27.9719 5.59522 23.9062 10.1769C20.2345 14.3144 17.3298 18.6191 15.1161 23.0536C13.5983 26.094 9.91917 27.5691 6.89852 26.3485C3.87787 25.1278 2.6596 21.6735 4.17738 18.6331C6.92162 13.1359 10.49 7.86941 14.9127 2.88549C19.6245 -2.42427 24.6687 -6.96232 30.0153 -10.7478C32.8509 -12.7555 36.6416 -12.2841 38.4821 -9.69497ZM163.572 203.136C162.199 206.231 158.581 207.868 155.492 206.792C144.925 203.112 134.562 198.834 124.515 194.055C121.586 192.661 120.581 189.128 122.27 186.163C123.958 183.197 127.701 181.923 130.63 183.316C140.323 187.927 150.305 192.047 160.466 195.585C163.555 196.661 164.946 200.042 163.572 203.136ZM281.706 379.111C283.191 381.923 281.932 385.566 278.895 387.246C267.658 393.461 255.62 398.16 242.86 401.293C239.527 402.111 236.366 400.202 235.799 397.03C235.231 393.857 237.473 390.622 240.806 389.804C252.448 386.946 263.365 382.677 273.519 377.06C276.557 375.38 280.222 376.298 281.706 379.111ZM104.514 176.571C102.55 179.387 98.7274 180.314 95.976 178.64C86.4205 172.828 77.3011 166.582 68.7397 160.003C66.2015 158.052 65.9541 154.337 68.187 151.705C70.4199 149.072 74.2876 148.519 76.8257 150.47C85.0706 156.806 93.8647 162.83 103.089 168.441C105.84 170.114 106.478 173.754 104.514 176.571ZM3.0753 46.6774C6.44964 46.2064 9.35062 48.4529 9.55479 51.6952C10.1448 61.0657 12.7919 70.9 17.3226 80.9426C18.6325 83.846 17.1679 87.4303 14.0515 88.9483C10.935 90.4662 7.34679 89.3431 6.03691 86.4396C1.09032 75.4751 -1.97474 64.3608 -2.66486 53.4009C-2.86905 50.1587 -0.299076 47.1484 3.0753 46.6774ZM53.1014 138.671C50.6013 141.071 46.73 141.209 44.4545 138.98C36.33 131.018 29.032 122.753 22.7398 114.32C20.84 111.773 21.5667 108.038 24.3629 105.976C27.1591 103.915 30.966 104.307 32.8658 106.854C38.8007 114.808 45.732 122.667 53.508 130.287C55.7835 132.517 55.6014 136.27 53.1014 138.671ZM212.65 399.889C212.424 403.165 209.507 405.866 206.134 405.922C194.318 406.117 182.058 405.169 169.397 403.062C166.123 402.517 164.148 399.456 164.988 396.225C165.827 392.995 169.163 390.818 172.437 391.363C184.438 393.36 195.952 394.241 206.951 394.059C210.324 394.003 212.876 396.614 212.65 399.889ZM143.05 390.904C141.776 394.031 138.205 395.775 135.074 394.799C124.214 391.413 113.102 387.248 101.758 382.29C98.7788 380.988 97.6597 377.495 99.258 374.489C100.856 371.482 104.567 370.1 107.546 371.402C118.54 376.207 129.26 380.223 139.687 383.473C142.819 384.45 144.324 387.776 143.05 390.904ZM79.371 364.707C77.5356 367.598 73.7464 368.691 70.9074 367.149C61.03 361.784 50.9954 355.847 40.8147 349.331C38.1061 347.598 37.5501 343.938 39.5728 341.158C41.5956 338.378 45.4311 337.53 48.1397 339.264C58.1132 345.648 67.9218 351.449 77.5538 356.681C80.3927 358.223 81.2063 361.817 79.371 364.707ZM21.466 328.777C19.2987 331.458 15.4386 332.106 12.8442 330.223C3.79047 323.653 -5.36742 316.639 -14.6221 309.175C-17.111 307.168 -17.2741 303.441 -14.9864 300.852C-12.6987 298.263 -8.82657 297.791 -6.33768 299.798C2.78159 307.153 11.7943 314.055 20.6929 320.513C23.2872 322.395 23.6333 326.095 21.466 328.777ZM-31.6543 286.786C-34.039 289.293 -37.9146 289.617 -40.3107 287.508C-48.707 280.119 -57.1757 272.367 -65.7116 264.248C-68.021 262.051 -67.8919 258.3 -65.4232 255.869C-62.9545 253.438 -59.081 253.249 -56.7716 255.445C-48.3315 263.474 -39.9641 271.133 -31.6747 278.428C-29.2787 280.536 -29.2695 284.278 -31.6543 286.786ZM-80.9868 240.545C-83.5256 242.907 -87.3932 242.981 -89.6254 240.71C-97.4384 232.763 -105.302 224.512 -113.214 215.954C-115.374 213.618 -115.017 209.862 -112.416 207.565C-109.815 205.268 -105.956 205.3 -103.797 207.636C-95.9561 216.117 -88.1666 224.289 -80.4319 232.157C-78.1996 234.427 -78.4481 238.183 -80.9868 240.545ZM-126.955 191.394C-129.608 193.632 -133.457 193.507 -135.552 191.114C-142.911 182.707 -150.307 174.038 -157.738 165.103C-159.771 162.659 -159.228 158.909 -156.527 156.727C-153.826 154.545 -149.988 154.757 -147.956 157.201C-140.58 166.069 -133.242 174.671 -125.943 183.009C-123.848 185.402 -124.301 189.156 -126.955 191.394ZM-170.24 139.843C-172.983 141.974 -176.808 141.684 -178.784 139.195C-182.323 134.738 -185.869 130.221 -189.422 125.644C-191.37 123.134 -190.709 119.392 -187.947 117.286C-185.184 115.18 -181.365 115.508 -179.417 118.018C-175.888 122.565 -172.366 127.052 -168.851 131.479C-166.875 133.967 -167.497 137.712 -170.24 139.843Z" fill="#434343"/>
<path d="M149.407 238.86L65.3138 328.378L254.86 301.827L149.407 238.86Z" fill="#FE6D44"/>
<path fill-rule="evenodd" clip-rule="evenodd" d="M237.912 296.476L233.443 297.102C232.583 297.223 231.984 298.017 232.104 298.877C232.225 299.736 233.019 300.336 233.879 300.215L238.348 299.589C239.208 299.469 239.807 298.674 239.687 297.815C239.566 296.955 238.772 296.356 237.912 296.476ZM220.034 298.981L211.094 300.233C210.235 300.353 209.636 301.148 209.756 302.007C209.876 302.867 210.671 303.466 211.531 303.346L220.47 302.094C221.329 301.973 221.929 301.179 221.808 300.319C221.688 299.459 220.893 298.86 220.034 298.981ZM197.686 302.111L188.746 303.363C187.887 303.484 187.288 304.278 187.408 305.138C187.528 305.997 188.323 306.597 189.182 306.476L198.122 305.224C198.981 305.104 199.581 304.309 199.46 303.45C199.34 302.59 198.545 301.991 197.686 302.111ZM175.338 305.242L166.398 306.494C165.539 306.614 164.94 307.409 165.06 308.268C165.18 309.128 165.975 309.727 166.834 309.607L175.774 308.354C176.633 308.234 177.233 307.44 177.112 306.58C176.992 305.72 176.197 305.121 175.338 305.242ZM152.99 308.372L144.05 309.624C143.191 309.745 142.591 310.539 142.712 311.399C142.832 312.258 143.627 312.858 144.486 312.737L153.426 311.485C154.285 311.365 154.884 310.57 154.764 309.71C154.644 308.851 153.849 308.252 152.99 308.372ZM130.641 311.502L121.702 312.755C120.843 312.875 120.243 313.67 120.364 314.529C120.484 315.389 121.279 315.988 122.138 315.868L131.078 314.615C131.937 314.495 132.536 313.701 132.416 312.841C132.296 311.981 131.501 311.382 130.641 311.502ZM108.293 314.633L99.3542 315.885C98.4946 316.006 97.8953 316.8 98.0158 317.66C98.1362 318.519 98.9306 319.119 99.7903 318.998L108.729 317.746C109.589 317.625 110.188 316.831 110.068 315.971C109.948 315.112 109.153 314.513 108.293 314.633ZM85.9454 317.763L81.4758 318.39C80.6161 318.51 80.0169 319.304 80.1373 320.164C80.2577 321.024 81.0522 321.623 81.9118 321.502L86.3814 320.876C87.2411 320.756 87.8403 319.961 87.7199 319.102C87.5995 318.242 86.805 317.643 85.9454 317.763Z" fill="#1B1F21"/>
<path d="M151.865 252.551L254.86 301.826L237.357 176.874L151.865 252.551Z" fill="#FE6D44"/>
<path d="M151.865 252.551L254.86 301.826L237.357 176.874L151.865 252.551Z" fill="#FCFAF9" fill-opacity="0.12"/>
<path fill-rule="evenodd" clip-rule="evenodd" d="M247.848 291.205C248.321 290.864 248.566 290.289 248.485 289.712L247.766 284.582C247.646 283.723 246.851 283.123 245.992 283.244C245.132 283.364 244.533 284.159 244.653 285.018L244.959 287.202L243.079 286.272C242.301 285.887 241.359 286.205 240.974 286.983C240.589 287.761 240.907 288.704 241.685 289.089L246.231 291.339C246.754 291.597 247.376 291.546 247.848 291.205ZM244.991 276.097C245.85 275.976 246.45 275.182 246.329 274.322L244.892 264.062C244.772 263.203 243.977 262.604 243.117 262.724C242.258 262.844 241.659 263.639 241.779 264.499L243.216 274.758C243.337 275.618 244.131 276.217 244.991 276.097ZM242.116 255.577C242.976 255.457 243.575 254.662 243.455 253.803L242.018 243.543C241.897 242.683 241.103 242.084 240.243 242.204C239.383 242.325 238.784 243.119 238.905 243.979L240.342 254.239C240.462 255.098 241.257 255.697 242.116 255.577ZM239.242 235.057C240.102 234.937 240.701 234.142 240.58 233.283L239.143 223.023C239.023 222.163 238.228 221.564 237.369 221.684C236.509 221.805 235.91 222.599 236.03 223.459L237.467 233.719C237.588 234.578 238.382 235.178 239.242 235.057ZM236.368 214.537C237.227 214.417 237.826 213.623 237.706 212.763L236.987 207.633C236.867 206.773 236.073 206.174 235.213 206.295C234.353 206.415 233.754 207.209 233.874 208.069L234.593 213.199C234.714 214.059 235.508 214.658 236.368 214.537ZM234.698 283.878C235.083 283.1 234.765 282.157 233.987 281.772L224.894 277.272C224.116 276.887 223.173 277.206 222.788 277.984C222.403 278.762 222.722 279.705 223.5 280.09L232.592 284.589C233.37 284.974 234.313 284.656 234.698 283.878ZM216.513 274.878C216.898 274.1 216.579 273.158 215.801 272.773L206.709 268.273C205.931 267.888 204.988 268.207 204.603 268.985C204.218 269.763 204.537 270.705 205.315 271.09L214.407 275.59C215.185 275.975 216.128 275.656 216.513 274.878ZM198.328 265.879C198.713 265.101 198.394 264.158 197.616 263.773L188.523 259.274C187.746 258.889 186.803 259.207 186.418 259.985C186.033 260.763 186.351 261.706 187.129 262.091L196.222 266.591C197 266.976 197.943 266.657 198.328 265.879ZM180.142 256.88C180.527 256.102 180.209 255.159 179.431 254.774L174.885 252.524C174.107 252.139 173.164 252.458 172.779 253.236C172.394 254.014 172.712 254.956 173.49 255.341L178.037 257.591C178.815 257.976 179.757 257.658 180.142 256.88Z" fill="#1B1F21"/>
<path d="M150.806 252.7L65.3139 328.378L47.8107 203.425L150.806 252.7Z" fill="#FE6D44"/>
<path d="M150.806 252.7L65.3139 328.378L47.8107 203.425L150.806 252.7Z" fill="#FCFAF9" fill-opacity="0.12"/>
<path fill-rule="evenodd" clip-rule="evenodd" d="M55.5009 213.625C56.3603 213.504 57.1556 214.102 57.2773 214.961L57.9796 219.923C58.1012 220.783 57.5031 221.578 56.6436 221.7C55.7842 221.821 54.9889 221.223 54.8672 220.364L54.1649 215.402C54.0433 214.542 54.6414 213.747 55.5009 213.625ZM57.6077 228.511C58.4672 228.389 59.2625 228.987 59.3841 229.847L60.7887 239.771C60.9103 240.63 60.3122 241.426 59.4528 241.547C58.5933 241.669 57.798 241.071 57.6764 240.211L56.2718 230.287C56.1501 229.428 56.7483 228.633 57.6077 228.511ZM60.4168 248.359C61.2763 248.237 62.0716 248.835 62.1933 249.695L63.5978 259.618C63.7195 260.478 63.1214 261.273 62.2619 261.395C61.4025 261.516 60.6071 260.918 60.4855 260.059L59.0809 250.135C58.9593 249.276 59.5574 248.48 60.4168 248.359ZM63.226 268.206C64.0854 268.085 64.8808 268.683 65.0024 269.542L66.407 279.466C66.5286 280.325 65.9305 281.121 65.0711 281.242C64.2116 281.364 63.4163 280.766 63.2946 279.906L61.8901 269.983C61.7684 269.123 62.3665 268.328 63.226 268.206ZM66.0351 288.054C66.8946 287.932 67.6899 288.53 67.8115 289.39L69.2161 299.314C69.3378 300.173 68.7396 300.968 67.8802 301.09C67.0207 301.212 66.2254 300.613 66.1038 299.754L64.6992 289.83C64.5776 288.971 65.1757 288.175 66.0351 288.054ZM68.8443 307.901C69.7037 307.78 70.499 308.378 70.6207 309.237L70.9068 311.259L72.4626 309.844C73.1049 309.26 74.0989 309.308 74.6828 309.95C75.2668 310.592 75.2195 311.586 74.5773 312.17L70.8241 315.582C70.3933 315.974 69.7813 316.095 69.2335 315.898C68.6858 315.7 68.2922 315.216 68.2106 314.64L67.5083 309.678C67.3867 308.818 67.9848 308.023 68.8443 307.901ZM79.8634 305.24C79.2795 304.597 79.3267 303.603 79.969 303.019L87.4753 296.195C88.1175 295.611 89.1115 295.658 89.6955 296.3C90.2794 296.942 90.2321 297.936 89.5899 298.52L82.0836 305.345C81.4413 305.929 80.4473 305.882 79.8634 305.24ZM94.876 291.59C94.2921 290.948 94.3394 289.954 94.9816 289.37L102.488 282.545C103.13 281.961 104.124 282.008 104.708 282.65C105.292 283.293 105.245 284.287 104.603 284.871L97.0962 291.695C96.454 292.279 95.46 292.232 94.876 291.59ZM109.889 277.94C109.305 277.298 109.352 276.304 109.994 275.72L117.501 268.895C118.143 268.311 119.137 268.359 119.721 269.001C120.305 269.643 120.257 270.637 119.615 271.221L112.109 278.046C111.467 278.63 110.473 278.582 109.889 277.94ZM124.901 264.291C124.317 263.648 124.365 262.654 125.007 262.07L128.76 258.658C129.402 258.074 130.396 258.121 130.98 258.764C131.564 259.406 131.517 260.4 130.875 260.984L127.121 264.396C126.479 264.98 125.485 264.933 124.901 264.291Z" fill="#1B1F21"/>
<path d="M153.264 266.391L47.8108 203.425L237.357 176.873L153.264 266.391Z" fill="#FE6D44"/>
<path d="M153.264 266.391L47.8108 203.425L237.357 176.873L153.264 266.391Z" fill="#FCFAF9" fill-opacity="0.25"/>
<path fill-rule="evenodd" clip-rule="evenodd" d="M228.795 175.388C229.514 176.064 229.549 177.194 228.874 177.913L225.84 181.142C225.165 181.861 224.035 181.896 223.316 181.221C222.597 180.545 222.562 179.415 223.237 178.696L226.27 175.467C226.946 174.748 228.076 174.713 228.795 175.388ZM55.6353 199.644C56.141 198.797 57.2375 198.521 58.0844 199.026L61.8882 201.298C62.7351 201.803 63.0117 202.9 62.506 203.747C62.0004 204.594 60.9039 204.87 60.057 204.365L56.2532 202.093C55.4063 201.588 55.1297 200.491 55.6353 199.644ZM219.228 185.572C219.947 186.248 219.982 187.378 219.307 188.097L213.24 194.555C212.565 195.274 211.435 195.309 210.716 194.634C209.997 193.958 209.962 192.828 210.637 192.109L216.704 185.651C217.379 184.932 218.509 184.897 219.228 185.572ZM67.632 206.807C68.1377 205.961 69.2342 205.684 70.0811 206.19L77.6887 210.732C78.5356 211.238 78.8122 212.334 78.3065 213.181C77.8008 214.028 76.7044 214.305 75.8575 213.799L68.2498 209.257C67.4029 208.751 67.1263 207.654 67.632 206.807ZM206.628 198.985C207.347 199.66 207.382 200.791 206.707 201.51L200.64 207.968C199.965 208.687 198.835 208.722 198.116 208.046C197.397 207.371 197.362 206.241 198.037 205.522L204.104 199.064C204.779 198.345 205.909 198.31 206.628 198.985ZM83.4325 216.242C83.9382 215.395 85.0347 215.119 85.8816 215.624L93.4892 220.167C94.3361 220.672 94.6127 221.769 94.107 222.616C93.6013 223.463 92.5049 223.739 91.658 223.234L84.0503 218.691C83.2034 218.185 82.9268 217.089 83.4325 216.242ZM194.028 212.398C194.747 213.073 194.782 214.203 194.107 214.922L188.04 221.38C187.365 222.099 186.235 222.135 185.516 221.459C184.797 220.784 184.761 219.654 185.437 218.935L191.504 212.477C192.179 211.758 193.309 211.722 194.028 212.398ZM99.233 225.677C99.7387 224.83 100.835 224.553 101.682 225.059L109.29 229.601C110.137 230.107 110.413 231.203 109.908 232.05C109.402 232.897 108.305 233.174 107.458 232.668L99.8508 228.126C99.0039 227.62 98.7273 226.523 99.233 225.677ZM181.428 225.811C182.147 226.486 182.182 227.616 181.507 228.335L175.44 234.793C174.765 235.512 173.635 235.547 172.916 234.872C172.197 234.197 172.161 233.066 172.837 232.348L178.903 225.89C179.579 225.171 180.709 225.135 181.428 225.811ZM115.033 235.111C115.539 234.264 116.636 233.988 117.483 234.493L125.09 239.036C125.937 239.542 126.214 240.638 125.708 241.485C125.202 242.332 124.106 242.608 123.259 242.103L115.651 237.56C114.804 237.054 114.528 235.958 115.033 235.111ZM168.828 239.223C169.547 239.899 169.582 241.029 168.907 241.748L162.84 248.206C162.165 248.925 161.035 248.96 160.316 248.285C159.597 247.61 159.561 246.479 160.237 245.76L166.303 239.302C166.979 238.583 168.109 238.548 168.828 239.223ZM130.834 244.546C131.34 243.699 132.436 243.422 133.283 243.928L140.891 248.47C141.738 248.976 142.014 250.073 141.508 250.919C141.003 251.766 139.906 252.043 139.059 251.537L131.452 246.995C130.605 246.489 130.328 245.393 130.834 244.546ZM146.634 253.98C147.14 253.133 148.237 252.857 149.084 253.362L151.654 254.897L153.703 252.715C154.379 251.996 155.509 251.961 156.228 252.636C156.947 253.312 156.982 254.442 156.307 255.161L153.273 258.39C152.699 259.001 151.776 259.131 151.056 258.701L147.252 256.429C146.405 255.924 146.129 254.827 146.634 253.98Z" fill="#1B1F21"/>
<circle cx="234.639" cy="180.773" r="21.7783" transform="rotate(-7.974 234.639 180.773)" fill="#57ACBC"/>
<path d="M243.241 184.096L243.826 188.274L229.448 190.288L228.863 186.111L233.378 185.478L232.196 177.041L227.681 177.673L227.24 174.526C228.467 174.281 229.808 173.77 231.263 172.995C232.714 172.201 233.961 171.354 235.002 170.452L236.858 170.192L238.891 184.706L243.241 184.096Z" fill="#FFFFFE"/>
<g opacity="0.62" filter="url(#filter0_f_3061_1288)">
<path d="M153.478 92.5591L111 111.308L180.89 130.034L153.478 92.5591Z" fill="#FE6D44"/>
<path fill-rule="evenodd" clip-rule="evenodd" d="M175.785 125.653L174.137 125.212C173.81 125.124 173.473 125.318 173.385 125.646C173.298 125.973 173.492 126.31 173.819 126.397L175.467 126.839C175.795 126.927 176.131 126.732 176.219 126.405C176.307 126.077 176.113 125.741 175.785 125.653ZM169.193 123.887L165.897 123.004C165.569 122.916 165.233 123.11 165.145 123.438C165.057 123.765 165.252 124.102 165.579 124.19L168.875 125.073C169.203 125.16 169.539 124.966 169.627 124.639C169.715 124.311 169.521 123.975 169.193 123.887ZM160.953 121.679L157.657 120.796C157.329 120.708 156.993 120.902 156.905 121.23C156.817 121.557 157.012 121.894 157.339 121.982L160.635 122.865C160.963 122.953 161.299 122.758 161.387 122.431C161.475 122.103 161.28 121.767 160.953 121.679ZM152.713 119.471L149.417 118.588C149.089 118.5 148.753 118.694 148.665 119.022C148.577 119.349 148.771 119.686 149.099 119.774L152.395 120.657C152.722 120.745 153.059 120.55 153.147 120.223C153.235 119.895 153.04 119.559 152.713 119.471ZM144.473 117.263L141.177 116.38C140.849 116.292 140.512 116.486 140.425 116.814C140.337 117.141 140.531 117.478 140.859 117.566L144.155 118.449C144.482 118.537 144.819 118.342 144.907 118.015C144.994 117.687 144.8 117.351 144.473 117.263ZM136.232 115.055L132.936 114.172C132.609 114.084 132.272 114.278 132.185 114.606C132.097 114.933 132.291 115.27 132.619 115.358L135.915 116.241C136.242 116.329 136.579 116.134 136.667 115.807C136.754 115.479 136.56 115.143 136.232 115.055ZM127.992 112.847L124.696 111.964C124.369 111.876 124.032 112.07 123.944 112.398C123.857 112.725 124.051 113.062 124.378 113.15L127.675 114.033C128.002 114.121 128.339 113.926 128.426 113.599C128.514 113.271 128.32 112.935 127.992 112.847ZM119.752 110.639L118.104 110.198C117.777 110.11 117.44 110.304 117.352 110.632C117.264 110.959 117.459 111.296 117.786 111.383L119.434 111.825C119.762 111.913 120.098 111.718 120.186 111.391C120.274 111.063 120.08 110.727 119.752 110.639Z" fill="#1B1F21"/>
<path d="M152.312 97.6879L180.889 130.035L193.234 83.9628L152.312 97.6879Z" fill="#FE6D44"/>
<path d="M152.312 97.6879L180.889 130.035L193.234 83.9628L152.312 97.6879Z" fill="#FCFAF9" fill-opacity="0.12"/>
<path fill-rule="evenodd" clip-rule="evenodd" d="M180.021 125.322C180.242 125.272 180.418 125.102 180.477 124.883L180.984 122.991C181.072 122.664 180.877 122.327 180.55 122.239C180.222 122.151 179.886 122.346 179.798 122.673L179.592 123.442L179.099 122.87C178.878 122.612 178.49 122.583 178.233 122.804C177.976 123.025 177.947 123.413 178.168 123.67L179.419 125.124C179.567 125.297 179.799 125.373 180.021 125.322ZM181.246 119.642C181.573 119.73 181.91 119.536 181.997 119.208L183.011 115.425C183.099 115.098 182.905 114.761 182.577 114.673C182.25 114.585 181.913 114.78 181.825 115.107L180.812 118.89C180.724 119.218 180.918 119.554 181.246 119.642ZM183.273 112.076C183.6 112.164 183.937 111.97 184.025 111.642L185.038 107.859C185.126 107.532 184.932 107.195 184.604 107.107C184.277 107.019 183.94 107.214 183.852 107.541L182.839 111.324C182.751 111.652 182.945 111.988 183.273 112.076ZM185.3 104.51C185.628 104.598 185.964 104.403 186.052 104.076L187.066 100.293C187.154 99.9655 186.959 99.6289 186.632 99.5411C186.304 99.4534 185.968 99.6477 185.88 99.9752L184.866 103.758C184.778 104.086 184.973 104.422 185.3 104.51ZM187.328 96.9441C187.655 97.0318 187.992 96.8375 188.079 96.51L188.586 94.6185C188.674 94.291 188.48 93.9543 188.152 93.8666C187.825 93.7788 187.488 93.9732 187.4 94.3007L186.893 96.1922C186.806 96.5197 187 96.8563 187.328 96.9441ZM176.533 120.828C176.79 120.606 176.819 120.219 176.598 119.962L174.098 117.054C173.877 116.797 173.489 116.768 173.232 116.989C172.975 117.21 172.946 117.598 173.167 117.855L175.667 120.762C175.889 121.019 176.276 121.049 176.533 120.828ZM171.532 115.012C171.789 114.791 171.818 114.403 171.597 114.146L169.096 111.239C168.875 110.981 168.487 110.952 168.23 111.173C167.973 111.394 167.944 111.782 168.165 112.039L170.666 114.947C170.887 115.204 171.275 115.233 171.532 115.012ZM166.53 109.197C166.787 108.975 166.816 108.588 166.595 108.331L164.095 105.423C163.873 105.166 163.486 105.137 163.229 105.358C162.972 105.579 162.943 105.967 163.164 106.224L165.664 109.131C165.886 109.388 166.273 109.418 166.53 109.197ZM161.529 103.381C161.786 103.16 161.815 102.772 161.594 102.515L160.343 101.061C160.122 100.804 159.735 100.775 159.478 100.996C159.221 101.217 159.191 101.605 159.413 101.862L160.663 103.316C160.884 103.573 161.272 103.602 161.529 103.381Z" fill="black"/>
<path d="M151.922 97.5825L111 111.308L123.345 65.2353L151.922 97.5825Z" fill="#FE6D44"/>
<path d="M151.922 97.5825L111 111.308L123.345 65.2353L151.922 97.5825Z" fill="#FCFAF9" fill-opacity="0.12"/>
<path fill-rule="evenodd" clip-rule="evenodd" d="M124.522 69.9018C124.849 69.9891 125.044 70.3254 124.957 70.653L124.469 72.4837C124.382 72.8113 124.046 73.0061 123.718 72.9188C123.39 72.8315 123.196 72.4952 123.283 72.1676L123.771 70.337C123.858 70.0093 124.194 69.8145 124.522 69.9018ZM123.059 75.3936C123.386 75.4809 123.581 75.8173 123.494 76.1449L122.518 79.8061C122.431 80.1337 122.095 80.3286 121.767 80.2413C121.44 80.154 121.245 79.8177 121.332 79.49L122.307 75.8288C122.395 75.5012 122.731 75.3064 123.059 75.3936ZM121.108 82.7161C121.435 82.8034 121.63 83.1397 121.543 83.4673L120.568 87.1286C120.48 87.4562 120.144 87.651 119.816 87.5637C119.489 87.4764 119.294 87.1401 119.381 86.8125L120.357 83.1513C120.444 82.8236 120.78 82.6288 121.108 82.7161ZM119.157 90.0385C119.485 90.1258 119.679 90.4622 119.592 90.7898L118.617 94.451C118.529 94.7786 118.193 94.9735 117.866 94.8862C117.538 94.7989 117.343 94.4626 117.43 94.1349L118.406 90.4737C118.493 90.1461 118.829 89.9513 119.157 90.0385ZM117.206 97.361C117.534 97.4483 117.729 97.7846 117.641 98.1122L116.666 101.773C116.579 102.101 116.242 102.296 115.915 102.209C115.587 102.121 115.392 101.785 115.48 101.457L116.455 97.7962C116.542 97.4685 116.879 97.2737 117.206 97.361ZM115.255 104.683C115.583 104.771 115.778 105.107 115.691 105.435L115.501 106.144L116.216 105.894C116.536 105.782 116.887 105.95 116.999 106.27C117.111 106.59 116.942 106.941 116.622 107.053L114.813 107.687C114.598 107.762 114.359 107.712 114.192 107.558C114.026 107.403 113.958 107.169 114.016 106.949L114.504 105.119C114.591 104.791 114.928 104.596 115.255 104.683ZM119.46 105.408C119.348 105.088 119.516 104.738 119.836 104.626L123.456 103.358C123.776 103.246 124.126 103.415 124.238 103.735C124.35 104.055 124.181 104.405 123.862 104.517L120.242 105.785C119.922 105.897 119.572 105.728 119.46 105.408ZM126.699 102.873C126.587 102.553 126.755 102.203 127.075 102.091L130.695 100.823C131.015 100.711 131.365 100.879 131.477 101.199C131.589 101.519 131.421 101.869 131.101 101.982L127.481 103.249C127.161 103.361 126.811 103.193 126.699 102.873ZM133.938 100.337C133.826 100.017 133.994 99.667 134.314 99.5549L137.934 98.2871C138.254 98.175 138.604 98.3436 138.716 98.6636C138.828 98.9836 138.66 99.3338 138.34 99.4459L134.72 100.714C134.4 100.826 134.05 100.657 133.938 100.337ZM141.177 97.8016C141.065 97.4816 141.234 97.1314 141.554 97.0193L143.363 96.3854C143.683 96.2733 144.034 96.4419 144.146 96.7618C144.258 97.0818 144.089 97.4321 143.769 97.5442L141.959 98.1781C141.639 98.2902 141.289 98.1216 141.177 97.8016Z" fill="black"/>
<path d="M150.757 102.712L123.345 65.2363L193.235 83.9631L150.757 102.712Z" fill="#FE6D44"/>
<path d="M150.757 102.712L123.345 65.2363L193.235 83.9631L150.757 102.712Z" fill="#FCFAF9" fill-opacity="0.25"/>
<path fill-rule="evenodd" clip-rule="evenodd" d="M190.494 82.1729C190.65 82.5254 190.49 82.9372 190.138 83.0928L188.605 83.7691C188.253 83.9246 187.841 83.765 187.686 83.4125C187.53 83.0601 187.69 82.6482 188.042 82.4926L189.574 81.8164C189.927 81.6608 190.339 81.8204 190.494 82.1729ZM126.613 65.056C126.924 64.8286 127.361 64.8963 127.588 65.2072L128.577 66.559C128.804 66.87 128.737 67.3065 128.426 67.5339C128.115 67.7614 127.678 67.6937 127.451 67.3827L126.462 66.0309C126.235 65.72 126.302 65.2835 126.613 65.056ZM185.662 84.3058C185.817 84.6582 185.658 85.0701 185.305 85.2257L182.241 86.5782C181.888 86.7338 181.477 86.5742 181.321 86.2217C181.165 85.8692 181.325 85.4574 181.678 85.3018L184.742 83.9492C185.094 83.7937 185.506 83.9533 185.662 84.3058ZM129.732 69.3193C130.043 69.0919 130.479 69.1596 130.707 69.4705L132.684 72.1741C132.912 72.4851 132.844 72.9215 132.533 73.149C132.222 73.3765 131.786 73.3088 131.558 72.9978L129.58 70.2943C129.353 69.9833 129.421 69.5468 129.732 69.3193ZM179.297 87.1149C179.453 87.4674 179.293 87.8793 178.941 88.0348L175.876 89.3874C175.524 89.543 175.112 89.3834 174.956 89.0309C174.801 88.6784 174.96 88.2666 175.313 88.111L178.377 86.7584C178.73 86.6028 179.142 86.7625 179.297 87.1149ZM133.839 74.9344C134.15 74.707 134.586 74.7746 134.814 75.0856L136.791 77.7892C137.019 78.1001 136.951 78.5366 136.64 78.7641C136.329 78.9916 135.893 78.9239 135.665 78.6129L133.688 75.9093C133.46 75.5984 133.528 75.1619 133.839 74.9344ZM172.933 89.9241C173.088 90.2766 172.929 90.6884 172.576 90.844L169.512 92.1966C169.159 92.3522 168.747 92.1925 168.592 91.8401C168.436 91.4876 168.596 91.0757 168.948 90.9202L172.013 89.5676C172.365 89.412 172.777 89.5716 172.933 89.9241ZM137.946 80.5495C138.257 80.322 138.694 80.3897 138.921 80.7007L140.899 83.4043C141.126 83.7152 141.058 84.1517 140.748 84.3792C140.437 84.6066 140 84.539 139.773 84.228L137.795 81.5244C137.568 81.2135 137.635 80.777 137.946 80.5495ZM166.568 92.7333C166.724 93.0858 166.564 93.4976 166.212 93.6532L163.147 95.0058C162.795 95.1613 162.383 95.0017 162.227 94.6492C162.072 94.2968 162.231 93.8849 162.584 93.7293L165.648 92.3768C166.001 92.2212 166.413 92.3808 166.568 92.7333ZM142.053 86.1646C142.364 85.9371 142.801 86.0048 143.028 86.3158L145.006 89.0193C145.233 89.3303 145.166 89.7668 144.855 89.9943C144.544 90.2217 144.107 90.154 143.88 89.8431L141.902 87.1395C141.675 86.8285 141.743 86.3921 142.053 86.1646ZM160.204 95.5424C160.359 95.8949 160.2 96.3068 159.847 96.4624L156.783 97.8149C156.43 97.9705 156.018 97.8109 155.863 97.4584C155.707 97.1059 155.867 96.6941 156.219 96.5385L159.284 95.1859C159.636 95.0304 160.048 95.19 160.204 95.5424ZM146.161 91.7797C146.472 91.5522 146.908 91.6199 147.136 91.9309L149.113 94.6344C149.341 94.9454 149.273 95.3819 148.962 95.6093C148.651 95.8368 148.215 95.7691 147.987 95.4582L146.01 92.7546C145.782 92.4436 145.85 92.0071 146.161 91.7797ZM150.268 97.3948C150.579 97.1673 151.015 97.235 151.243 97.546L151.9 98.4448L152.919 97.9951C153.272 97.8395 153.684 97.9991 153.839 98.3516C153.995 98.7041 153.835 99.116 153.483 99.2715L151.95 99.9478C151.651 100.08 151.299 99.986 151.106 99.7215L150.117 98.3697C149.889 98.0587 149.957 97.6222 150.268 97.3948Z" fill="#1B1F21"/>
</g>
</g>
<defs>
<filter id="filter0_f_3061_1288" x="103" y="56.9214" width="98.2345" height="81.1137" filterUnits="userSpaceOnUse" color-interpolation-filters="sRGB">
<feFlood flood-opacity="0" result="BackgroundImageFix"/>
<feBlend mode="normal" in="SourceGraphic" in2="BackgroundImageFix" result="shape"/>
<feGaussianBlur stdDeviation="4" result="effect1_foregroundBlur_3061_1288"/>
</filter>
</defs>
</svg>
