<svg width="25" height="25" viewBox="0 0 25 25" fill="none" xmlns="http://www.w3.org/2000/svg">
<path d="M12.5 13.75C12.8542 13.75 13.1513 13.63 13.3913 13.39C13.6304 13.1508 13.75 12.8542 13.75 12.5V7.46875C13.75 7.11458 13.6304 6.82292 13.3913 6.59375C13.1513 6.36458 12.8542 6.25 12.5 6.25C12.1458 6.25 11.8492 6.36958 11.61 6.60875C11.37 6.84875 11.25 7.14583 11.25 7.5V12.5312C11.25 12.8854 11.37 13.1771 11.61 13.4062C11.8492 13.6354 12.1458 13.75 12.5 13.75ZM12.5 18.75C12.8542 18.75 13.1513 18.63 13.3913 18.39C13.6304 18.1508 13.75 17.8542 13.75 17.5C13.75 17.1458 13.6304 16.8487 13.3913 16.6087C13.1513 16.3696 12.8542 16.25 12.5 16.25C12.1458 16.25 11.8492 16.3696 11.61 16.6087C11.37 16.8487 11.25 17.1458 11.25 17.5C11.25 17.8542 11.37 18.1508 11.61 18.39C11.8492 18.63 12.1458 18.75 12.5 18.75ZM12.5 25C10.7708 25 9.14583 24.6717 7.625 24.015C6.10417 23.3592 4.78125 22.4688 3.65625 21.3438C2.53125 20.2188 1.64083 18.8958 0.985 17.375C0.328333 15.8542 0 14.2292 0 12.5C0 10.7708 0.328333 9.14583 0.985 7.625C1.64083 6.10417 2.53125 4.78125 3.65625 3.65625C4.78125 2.53125 6.10417 1.64042 7.625 0.98375C9.14583 0.327917 10.7708 0 12.5 0C14.2292 0 15.8542 0.327917 17.375 0.98375C18.8958 1.64042 20.2188 2.53125 21.3438 3.65625C22.4688 4.78125 23.3592 6.10417 24.015 7.625C24.6717 9.14583 25 10.7708 25 12.5C25 14.2292 24.6717 15.8542 24.015 17.375C23.3592 18.8958 22.4688 20.2188 21.3438 21.3438C20.2188 22.4688 18.8958 23.3592 17.375 24.015C15.8542 24.6717 14.2292 25 12.5 25Z" fill="#FCFAF9"/>
</svg>
