<svg width="104" height="104" viewBox="0 0 104 104" fill="none" xmlns="http://www.w3.org/2000/svg">
<circle cx="52" cy="52" r="52" fill="#FE6D44"/>
<path d="M91.5701 29.9417L84.9373 35.9413L85.9121 38.1221L94.8088 37.1869L94.0511 35.4919L87.1869 36.2786L92.3555 31.6987L91.5701 29.9417Z" fill="#FCFAF9"/>
<path d="M91.3919 40.1268C88.9049 40.587 87.411 42.7281 87.8724 45.2094C88.3337 47.6908 90.4978 49.1548 92.9848 48.6945C95.4718 48.2343 96.9657 46.0932 96.5043 43.6119C96.043 41.1305 93.8789 39.6665 91.3919 40.1268ZM92.6435 46.8586C91.0264 47.1579 89.7869 46.3859 89.5118 44.906C89.2366 43.4261 90.1161 42.262 91.7332 41.9627C93.3503 41.6634 94.5898 42.4354 94.8649 43.9153C95.1401 45.3952 94.2606 46.5593 92.6435 46.8586Z" fill="#FCFAF9"/>
<path d="M93.0707 50.1195C90.5568 49.9746 88.5928 51.5163 88.4429 54.1036C88.329 56.0694 89.311 57.5543 91.0361 58.1753L91.6358 56.4528C90.599 56.1096 90.0421 55.3294 90.1069 54.2109C90.1946 52.6969 91.4113 51.8943 92.9627 51.9837C94.514 52.0732 95.6274 53.0556 95.5403 54.5582C95.4768 55.6541 94.8274 56.2741 93.7699 56.4852L94.1774 58.2771C95.9221 57.9696 97.0923 56.5974 97.2049 54.6542C97.3515 52.1234 95.5506 50.2625 93.0707 50.1195Z" fill="#FCFAF9"/>
<path d="M86.8512 63.4648L88.0414 58.9677L95.8717 61.0307L94.6815 65.5278L93.3216 65.1695L94.0746 62.3246L92.3528 61.871L91.652 64.5189L90.2921 64.1607L90.9929 61.5127L88.975 60.9811L88.2221 63.826L86.8512 63.4648ZM97.4215 64.927C97.2336 64.9867 97.0161 65.0699 96.7689 65.1764C96.5271 65.2922 96.2879 65.4126 96.0515 65.5375C95.8151 65.6625 95.6137 65.7733 95.4473 65.87L95.3048 65.8324L95.5915 64.7492C95.7587 64.5903 95.9489 64.4181 96.1623 64.2324C96.383 64.0486 96.6172 63.8879 96.8648 63.7503C96.7176 63.5086 96.5961 63.2582 96.5005 62.9989C96.4049 62.7396 96.32 62.4987 96.2459 62.2763L96.5326 61.1931L96.6752 61.2307C96.7774 61.4059 96.8977 61.6014 97.0361 61.8173C97.1799 62.0425 97.3292 62.2613 97.4841 62.4738C97.6445 62.6955 97.7915 62.8786 97.9253 63.0231L97.4215 64.927Z" fill="#FCFAF9"/>
<path d="M85.2661 67.5364L82.3682 72.6619L83.7809 73.457L85.7872 69.9086L87.5062 70.8761L86.1798 73.222L87.5925 74.0171L88.9189 71.6712L90.3711 72.4886L88.4206 75.9384L89.8333 76.7335L92.6755 71.7066L85.2661 67.5364Z" fill="#FCFAF9"/>
<path d="M82.7004 82.2179C84.1003 82.8306 85.4321 82.4774 86.5446 81.1782C87.7235 79.8015 87.8806 78.0153 86.6905 77.0008C85.2589 75.7806 83.906 76.7856 82.8235 77.649C82.0727 78.2296 81.4633 78.767 80.8856 78.2745C80.3595 77.8261 80.5159 77.1556 81.0464 76.5361C81.6432 75.8392 82.365 75.606 83.2306 76.076L84.0263 74.328C82.5562 73.6405 81.1223 74.0258 79.8845 75.4713C78.5951 76.977 78.5117 78.6772 79.7708 79.7505C81.142 80.9193 82.4939 80.0027 83.5629 79.1724C84.3517 78.5647 84.9992 78.0003 85.5511 78.4707C86.0082 78.8604 85.9292 79.4926 85.3693 80.1466C84.8241 80.7833 84.1463 80.8605 83.4851 80.535L82.7004 82.2179Z" fill="#FCFAF9"/>
<path d="M75.5266 79.9888L74.104 81.1132L78.3511 86.4622L76.4484 87.966L77.4837 89.27L82.7117 85.1381L81.6763 83.8341L79.7736 85.3379L75.5266 79.9888Z" fill="#FCFAF9"/>
<path d="M66.972 85.352L68.3761 86.796L71.0009 85.4544L70.6466 83.4739L72.2921 82.6328L73.4562 91.1547L71.5886 92.1093L65.3265 86.1931L66.972 85.352ZM70.7798 89.293C70.8721 89.39 70.9899 89.512 71.1334 89.659C71.2769 89.8061 71.4221 89.9565 71.569 90.1103C71.716 90.2641 71.8407 90.3995 71.9433 90.5166C71.908 90.3651 71.8689 90.1732 71.8261 89.9408C71.7799 89.7185 71.7373 89.503 71.698 89.2942C71.6555 89.0955 71.6287 88.9524 71.6177 88.8647L71.2741 86.9296L69.3964 87.8894L70.7798 89.293ZM71.4579 94.8083C71.5038 94.6661 71.5697 94.4883 71.6555 94.2749C71.7414 94.0615 71.8372 93.8345 71.9431 93.5939C72.0422 93.3567 72.1448 93.1263 72.2508 92.9025C72.3536 92.6889 72.4465 92.5058 72.5295 92.3532L73.5289 91.8424L73.5962 91.9733C73.554 92.1559 73.5053 92.3673 73.4502 92.6074C73.3918 92.8576 73.3384 93.1095 73.2902 93.3631C73.2454 93.6233 73.2138 93.8514 73.1955 94.0473L71.5096 94.909L71.4579 94.8083Z" fill="#FCFAF9"/>
<path d="M61.8737 87.15L60.1109 87.5804L62.1331 95.8247L63.8959 95.3943L61.8737 87.15Z" fill="#FCFAF9"/>
<path d="M58.3095 88.1533L56.6225 88.2547L56.9794 94.1627L52.8975 88.4787L50.9728 88.5944L51.4846 97.0667L53.1829 96.9646L52.8287 91.1018L56.8965 96.7412L58.8213 96.6255L58.3095 88.1533Z" fill="#FCFAF9"/>
<path d="M42.0103 93.7563C42.2084 95.2686 43.2 96.2234 44.8899 96.5017C46.6805 96.7967 48.2942 96.0073 48.5491 94.4664C48.8559 92.6129 47.2941 91.9771 45.9937 91.4991C45.1074 91.1581 44.3313 90.9156 44.4551 90.1675C44.5678 89.4864 45.2239 89.2733 46.0297 89.406C46.9361 89.5553 47.5094 90.0512 47.5538 91.0335L49.4648 90.8092C49.2945 89.1983 48.2226 88.1729 46.3425 87.8632C44.384 87.5406 42.8823 88.3484 42.6125 89.9786C42.3187 91.754 43.804 92.4345 45.0691 92.9182C45.9982 93.2777 46.8173 93.5388 46.699 94.2534C46.6011 94.8452 46.0178 95.1047 45.1673 94.9646C44.3391 94.8281 43.9225 94.2892 43.8598 93.5563L42.0103 93.7563Z" fill="#FCFAF9"/>
<path d="M40.8384 91.3341C41.7682 88.9993 40.9202 86.6539 38.5062 85.697C36.6721 84.97 34.9502 85.4321 33.8161 86.8701L35.2658 87.9805C35.9188 87.1068 36.8365 86.8252 37.88 87.2389C39.2926 87.7988 39.6729 89.2038 39.0991 90.6447C38.5254 92.0855 37.2401 92.8303 35.8382 92.2746C34.8157 91.8693 34.4304 91.059 34.5627 89.9911L32.7298 89.8126C32.4727 91.5616 33.4094 93.1019 35.2225 93.8206C37.5838 94.7566 39.9212 93.6374 40.8384 91.3341Z" fill="#FCFAF9"/>
<path d="M34.0432 83.8886L32.5609 82.8636L30.784 85.4214L29.656 84.6414L29.8294 80.9748L28.1514 79.8144L27.9684 84.0114C27.0272 83.8563 26.1117 84.2008 25.5237 85.0472C24.5804 86.4052 24.9648 87.9378 26.3538 88.8983L29.1972 90.8645L34.0432 83.8886ZM27.3244 87.6005C26.7557 87.2072 26.6406 86.6181 27.0153 86.0787C27.3836 85.5485 27.9676 85.4429 28.527 85.8297L29.8601 86.7515L28.6389 88.5094L27.3244 87.6005Z" fill="#FCFAF9"/>
<path d="M27.5671 79.0683L26.261 77.8112L20.3548 83.9199L21.661 85.177L27.5671 79.0683Z" fill="#FCFAF9"/>
<path d="M23.732 75.026L22.627 73.5896L17.2012 77.7443L15.7233 75.8231L14.4006 76.836L18.4613 82.1148L19.784 81.1019L18.3061 79.1807L23.732 75.026Z" fill="#FCFAF9"/>
<path d="M16.9715 73.1998C19.2655 72.1366 20.1784 69.6919 19.1127 67.4032C18.047 65.1145 15.5858 64.2338 13.2918 65.297C10.9978 66.3603 10.085 68.8049 11.1507 71.0936C12.2164 73.3824 14.6776 74.2631 16.9715 73.1998ZM14.0803 66.9905C15.5719 66.2991 16.9649 66.7391 17.6005 68.1041C18.2361 69.4691 17.6746 70.815 16.183 71.5064C14.6914 72.1977 13.2984 71.7578 12.6628 70.3927C12.0272 69.0277 12.5887 67.6818 14.0803 66.9905Z" fill="#FCFAF9"/>
<path d="M16.1867 59.9962L16.0036 58.3199L10.1063 58.961L15.5994 54.6186L15.3906 52.706L6.93359 53.6254L7.11788 55.3129L12.9701 54.6767L7.52086 59.003L7.72972 60.9155L16.1867 59.9962Z" fill="#FCFAF9"/>
<path d="M15.2774 51.8123L15.5011 50.0154L13.3392 48.9265L13.7152 45.9055L16.0784 45.3772L16.3118 43.5017L7.47264 45.6452L7.23223 47.5769L15.2774 51.8123ZM11.7811 48.1291L9.31809 46.8888L12.0104 46.2873L11.7811 48.1291Z" fill="#FCFAF9"/>
<path d="M17.2067 40.359L17.9158 38.8284L12.5308 36.3453L19.4813 35.4486L20.2903 33.7023L12.5681 30.1415L11.8543 31.6824L17.1981 34.1465L10.2935 35.0519L9.48455 36.7983L17.2067 40.359Z" fill="#FCFAF9"/>
<path d="M21.303 32.1142L24.8762 27.4322L23.5857 26.4518L21.1119 29.6932L19.5417 28.5002L21.1771 26.3573L19.8867 25.377L18.2512 27.5198L16.9247 26.512L19.3297 23.3607L18.0392 22.3803L14.5347 26.9722L21.303 32.1142Z" fill="#FCFAF9"/>
<path d="M24.6949 19.46L25.6659 23.5062L20.7165 19.5036L19.3201 20.6425L26.0566 26.1109L27.5407 24.9005L26.7736 21.7111L29.8065 23.0526L31.2906 21.8421L27.2503 14.1749L25.8715 15.2994L28.8434 20.9294L25.0022 19.2093L24.6949 19.46Z" fill="#FCFAF9"/>
<path d="M36.237 12.0504C35.2062 10.9242 33.8452 10.7085 32.3003 11.4463C30.6633 12.2281 29.7941 13.7975 30.47 15.2062C31.2829 16.9006 32.928 16.529 34.2684 16.1774C35.1906 15.9503 35.9659 15.7054 36.2941 16.3893C36.5928 17.012 36.1775 17.5617 35.4408 17.9135C34.6121 18.3093 33.8576 18.2305 33.2571 17.4508L31.8197 18.727C32.8843 19.95 34.3516 20.1776 36.0704 19.3568C37.8609 18.5017 38.6278 16.9811 37.9127 15.4908C37.1341 13.8678 35.5259 14.1591 34.2113 14.4858C33.2433 14.7223 32.4221 14.9765 32.1087 14.3232C31.8491 13.7822 32.1781 13.2361 32.9557 12.8647C33.7128 12.5031 34.3637 12.7067 34.836 13.2716L36.237 12.0504Z" fill="#FCFAF9"/>
<path d="M40.2164 17.3693L45.6436 15.9787L45.2289 14.3674L41.5595 15.3076L39.8582 8.69804L38.1004 9.14843L40.2164 17.3693Z" fill="#FCFAF9"/>
<path d="M46.8517 15.7722L52.7379 15.3964L52.6343 13.7814L48.5593 14.0416L48.4332 12.0765L51.1273 11.9045L51.0237 10.2895L48.3297 10.4615L48.2232 8.80131L52.185 8.54835L52.0814 6.93335L46.3085 7.30194L46.8517 15.7722Z" fill="#FCFAF9"/>
<path d="M55.5195 15.6647L57.3205 15.8878L58.1633 9.11576L60.5722 9.4142L60.7776 7.76331L54.159 6.94329L53.9535 8.59418L56.3623 8.89262L55.5195 15.6647Z" fill="#FCFAF9"/>
<path d="M62.2333 16.9399L63.9622 17.4906L66.0424 10.9898L68.3547 11.7264L68.8619 10.1416L62.5083 8.11779L62.0012 9.70255L64.3135 10.4391L62.2333 16.9399Z" fill="#FCFAF9"/>
<path d="M66.8556 18.5068L72.0555 21.2844L72.8211 19.8577L69.2212 17.9347L70.1527 16.1987L72.5326 17.47L73.2982 16.0433L70.9183 14.772L71.7053 13.3054L75.2052 15.175L75.9708 13.7483L70.8709 11.0241L66.8556 18.5068Z" fill="#FCFAF9"/>
<path d="M72.8859 21.7936L74.2702 22.947L76.2695 20.5581L77.323 21.4358L76.8212 25.0722L78.3884 26.3779L78.9473 22.2141C79.8707 22.4527 80.8135 22.1913 81.4751 21.4009C82.5366 20.1326 82.2912 18.5718 80.994 17.491L78.3385 15.2787L72.8859 21.7936ZM79.9108 18.697C80.4419 19.1394 80.5038 19.7365 80.0821 20.2403C79.6677 20.7354 79.0766 20.7884 78.5542 20.3532L77.3092 19.316L78.6832 17.6742L79.9108 18.697Z" fill="#FCFAF9"/>
<path d="M83.8132 26.5044C84.154 26.2536 84.4683 26.1068 84.756 26.0639C85.0482 26.027 85.3117 26.0721 85.5466 26.1993C85.7876 26.322 85.9956 26.5017 86.1706 26.7385C86.3457 26.9753 86.4541 27.2237 86.4958 27.4836C86.5481 27.745 86.5135 28.0096 86.3918 28.2772C86.2701 28.5448 86.0389 28.804 85.6981 29.0547C85.3633 29.301 85.0499 29.4425 84.7577 29.4794C84.4655 29.5163 84.1989 29.4734 83.9579 29.3507C83.7214 29.2341 83.5156 29.0574 83.3406 28.8206C83.1656 28.5838 83.055 28.3324 83.0087 28.0664C82.9625 27.8005 83.0002 27.5337 83.1219 27.2661C83.248 27.0046 83.4785 26.7507 83.8132 26.5044Z" fill="#FCFAF9"/>
<path fill-rule="evenodd" clip-rule="evenodd" d="M40.3658 36.2438C40.1475 36.244 39.9309 36.2659 39.8848 36.2925C39.7911 36.3466 50.4962 54.9692 50.7648 55.2198C50.9658 55.4072 51.5492 55.5635 51.817 55.5017C52.1722 55.4197 70.7572 44.6439 70.7034 44.5512C70.677 44.5054 70.4871 44.3724 70.2814 44.2556C69.9488 44.0668 68.2954 43.6118 55.3351 40.1434C42.7119 36.7651 40.7098 36.2435 40.3658 36.2438ZM37.6935 37.6706C37.4858 37.9759 37.3484 38.4645 34.8818 47.6701C32.4152 56.8758 32.2898 57.3677 32.317 57.7359C32.3327 57.9488 32.366 58.1285 32.3909 58.1352C32.4158 58.1419 35.3993 56.4365 39.0208 54.3454L45.6054 50.5435L41.804 43.9587C39.7132 40.337 37.9821 37.3684 37.9572 37.3617C37.9322 37.355 37.8136 37.494 37.6935 37.6706ZM65.2079 50.2298L58.6233 54.0317L62.4247 60.6165C64.5155 64.2382 66.2467 67.2068 66.2716 67.2135C66.2965 67.2202 66.4152 67.0811 66.5352 66.9046C66.7429 66.5993 66.8803 66.1107 69.3469 56.905C71.8136 47.6994 71.9389 47.2075 71.9117 46.8393C71.896 46.6263 71.8627 46.4467 71.8378 46.44C71.8129 46.4333 68.8294 48.1387 65.2079 50.2298ZM40.017 56.1648C35.7781 58.6124 33.4941 59.9702 33.5253 60.0241C33.5518 60.0698 33.7417 60.2028 33.9473 60.3196C34.2797 60.5083 35.9397 60.9656 48.8614 64.428C61.783 67.8903 63.4493 68.3243 63.8315 68.327C64.068 68.3287 64.299 68.3085 64.3448 68.2821C64.3989 68.251 63.098 65.9303 60.6415 61.6754L56.8548 55.1166L54.825 56.276C52.9678 57.3368 52.7437 57.4455 52.1886 57.5552L51.5819 57.675L50.7318 57.4472L49.8817 57.2195L49.4165 56.8114C48.9923 56.4393 48.8484 56.2271 47.7828 54.4037C47.14 53.304 46.6012 52.4007 46.5854 52.3965C46.5697 52.3923 43.6139 54.088 40.017 56.1648Z" fill="#FCFAF9"/>
</svg>
