<svg xmlns="http://www.w3.org/2000/svg" viewBox="0 0 762 762" fill="none" shape-rendering="auto"><metadata xmlns:rdf="http://www.w3.org/1999/02/22-rdf-syntax-ns#" xmlns:xsi="http://www.w3.org/2001/XMLSchema-instance" xmlns:dc="http://purl.org/dc/elements/1.1/" xmlns:dcterms="http://purl.org/dc/terms/"><rdf:RDF><rdf:Description><dc:title>Adventurer</dc:title><dc:creator>Lisa Wischofsky</dc:creator><dc:source xsi:type="dcterms:URI">https://www.figma.com/community/file/1184595184137881796</dc:source><dcterms:license xsi:type="dcterms:URI">https://creativecommons.org/licenses/by/4.0/</dcterms:license><dc:rights>Remix of „Adventurer” (https://www.figma.com/community/file/1184595184137881796) by „Lisa Wischofsky”, licensed under „CC BY 4.0” (https://creativecommons.org/licenses/by/4.0/)</dc:rights></rdf:Description></rdf:RDF></metadata><mask id="viewboxMask"><rect width="762" height="762" rx="0" ry="0" x="0" y="0" fill="#fff" /></mask><g mask="url(#viewboxMask)"><path d="M396 164.8a224.8 224.8 0 0 1 104.8 42.4c6.2 4.9 12.5 9.4 18 15a225.4 225.4 0 0 1 71.8 149 58.5 58.5 0 0 1 50.9 42.2 71 71 0 0 1-27.6 76.5c-11 7.7-24.5 12-38 11.7-5 0-10-1.6-15-1.8-1.9 2.2-3.3 4.9-4.8 7.3A223.3 223.3 0 0 1 389 609.8c-11 .7-21.9 2-33 .7a223.7 223.7 0 0 1-178.8-342.3A223.4 223.4 0 0 1 352 163.5c14.6-1.4 29.4-.3 44 1.3Z" fill="#000"/><path fill-rule="evenodd" clip-rule="evenodd" d="M498.8 213.2A216 216 0 0 0 363 169c-13-.2-26.2 1.6-39 4a218 218 0 0 0-113.6 365.5 218.5 218.5 0 0 0 260.4 40.2c35-18.8 64.2-47.3 84.4-81.5l-3-1.6c-2.8-1.4-5.7-3-8-5-2.2-2-.3-5.8 2.7-4.7 1.5.7 3 1.6 4.4 2.4a55 55 0 0 0 59.6-3.6 64.5 64.5 0 0 0 25-69.8 53.1 53.1 0 0 0-24-31 52.6 52.6 0 0 0-47-2.8c-1.6.8-3.4 1.5-5 1.3-2.5-.2-2.8-4.2-.6-5.2 8-4 16.5-5.6 25.4-6.4a217 217 0 0 0-72-146.4c-4.4-4-8.7-8.1-13.9-11.3Zm107.6 196.2c2-1.2 1.3-5.1-1.4-5-2 0-4.2.8-6.2 1.6l-1.4.4a95.1 95.1 0 0 0-25.5 12.4c-2.2 2-2.2 4.4.1 6.2a92 92 0 0 0 5.2 2.8 36 36 0 0 1 13 9.2c-.2 1.9-2 3.4-3.4 4.5l-.2.2c-3.9 3-8.8 5-13.6 7-2.5 1-4.9 2-7.1 3.1-1.7.8-2.6 2.2-1.6 3.9 1 2 3.2 1.1 5 .5l.6-.2 5.4-2.3c5.4-2.3 11-4.5 15.4-8 2.7-2.1 5.1-5.1 5.4-8.7-.5-3.4-2.7-5.7-5.3-7.8a83 83 0 0 0-11.6-7.2l-1.1-.6c5.4-3 10.8-5.6 16.6-7.7l5-1.7a52 52 0 0 0 6.7-2.6Z" fill="#f2d3b1"/><g transform="translate(-161 -83)"><path fill-rule="evenodd" clip-rule="evenodd" d="M613 456a65 65 0 0 0-114.3 3.7c-3.3 6.3-5.2 13-6.5 20-4.4.4-8.8.9-13 2l.3 1.5c.3 1.4.6 2.6 2.3 3 2.3.2 4.8 0 7.1-.3l2.8-.2A65.1 65.1 0 0 0 612 524c6.5-10.2 9.8-22 10-34 .1-3.9-.3-7.5-.8-11.2l-.4-3 3-.2c2.2-.2 4.5-.4 6.8-1 1.1-.5 1.4-1.6 1.6-2.8l.4-1.4c-4.4-1.1-8.7-.8-13.2-.3l-1.4-3.5c-1.5-3.6-3-7.2-5.1-10.7Zm.6 14.7a59.9 59.9 0 0 0-106.7-13.8 58.4 58.4 0 0 0-8.8 22.5c6-.7 11.9-1 17.9-1.5l14.5-1.1 11-.7c4.8-.3 9.6-.5 14.4-1.1 16.4-1.1 32.8-2.4 49.2-3.7l8.5-.6Zm-200.2-17.1c12 6.5 21 17.4 25.6 30.1 2.6.2 5.3.4 8 .8l-.1.7-.6 3c-1 .8-2.5 1-3.9 1.3l-1.6.4a55 55 0 1 1-109 9l-7.2-.3.1-1.3c.1-1.2.2-2.7 1.2-3.2 1.5-.5 3.2-.7 4.8-1 .6 0 1.2 0 1.8-.2a55 55 0 0 1 80.9-39.4Zm19.7 30.8a49.3 49.3 0 0 0-94.7 8c7-.4 14-1 21-1.6a1133.2 1133.2 0 0 1 29.9-2.4 1075.2 1075.2 0 0 1 18-1.3c8.6-.6 17.3-1.2 25.8-2.7Z" fill="#000"/><path d="M615.1 476.4a59.8 59.8 0 0 1-67.2 71.8 59.7 59.7 0 0 1-50.7-62.9l8.4-.8c.5 6.9 2.8 13.1 8 17.8a24.6 24.6 0 0 0 41.2-21.1c4.5-.5 9-1.1 13.4-1.4 15.7-1 31.3-2.6 47-3.4ZM431 490.8l3.7-1a49.5 49.5 0 0 1-85.8 43.2 49.9 49.9 0 0 1-11.2-34.6c16.4-1.6 33-2.6 49.4-4.4.1 5.6 1.1 10.8 4.7 15.2a22.3 22.3 0 0 0 23.4 8c7-2.3 13-8 15-15.2 1.2-3.8.6-7.3.7-11.2Z" fill="#fff"/></g><g transform="translate(-161 -83)"><path d="M517 379.7c1-1 2.2-2.3 1.8-3.6-.3-2.5-3.5-3.1-5.2-1.5l-8.3 7.4-6.5 5.8-3 2.7a44.3 44.3 0 0 0-7.4 7.5l.9 1c.7 1 1.4 1.8 2.7 1.8 1.5 0 2.7-1.1 3.8-2l.4-.4c4.3-4 8.7-8 13.1-11.8l7.6-6.8.2-.1ZM539.7 378.7c.5-1.8-.2-3-1.6-4-2-.4-3.9.7-5.6 1.7l-1.3.8-13.4 7.7-14.4 8.4c-1.6.9-1.7 2-1.7 3.4v1.5l1.2.3c1.2.4 2.3.8 3.6 0l15.1-8.6a959.6 959.6 0 0 1 14.4-8.3 10 10 0 0 0 3.7-3ZM566.4 378.4c2-.7 4.2.2 4.4 2.6 0 2.3-1.7 2.9-3.5 3.5l-.8.3a5914.4 5914.4 0 0 0-37.6 11.6c-1.3.4-2.6.8-4 0-1.8-1.2-1.7-4.2.4-5.1 1.8-.9 3.7-1.4 5.7-2l2.6-.8 11.5-3.5 21.3-6.6ZM589.4 390.4c1-1.7.6-3-.5-4.5-2.2-.7-4.9 0-7.4.5l-2.5.5-8.5 1.7-12.4 2.5c-2 .5-3.7 1.7-3.1 3.9.6 2 2 2.4 4 2.1l12-2.3 11.5-2.3c.5 0 .9-.2 1.3-.3 2-.3 4-.7 5.6-1.8ZM405.8 394.7a231.8 231.8 0 0 0 8 5v.1c1.8 1 3.5 2.1 5 3.4 1.8 1.4 1.3 4.3-.8 5-1.8.3-3-.4-4.4-1.3l-1-.6a1584 1584 0 0 0-12.9-8.2l-4.2-2.7-.3-.2-.4-.3c-1-.7-2.4-1.6-2.4-2.9-.3-2.4 2.2-4 4.4-2.9 3 1.7 6 3.7 9 5.6ZM384 395.5c-2-.6-4-1.3-6-1.7-2.5-.5-4.1 2-3.3 4.3a8.7 8.7 0 0 0 4 2.2l.5.2h.3l12 4 12.5 3.9c2.4.8 4.8.6 5.3-2.4-.2-2.1-2-2.8-3.7-3.5h-.1l-.3-.1-.5-.2-18.2-5.8-2.6-.9ZM587.1 395.3l10.4-.3c2.5 0 5 0 7.5-.2h1.3c1.7 0 3.6 0 4.4 1.6 1.2 1.7-.3 3.7-2 4.2-3 .6-6.1.6-9.2.5H596l-3 .1a80 80 0 0 1-5 0c-1.3 0-3.2-.3-3.5-1.6a3 3 0 0 1 2.6-4.3ZM360.3 402.9c-2-.1-4.2-.2-6.1.3-1.5 1.2-1.5 3.4-.1 4.8 1.6.7 3.6.8 5.4 1h.5l10.3.6 11.7.7 2.6.1c1.8.2 3.7.4 5.4 0 2-.6 2.6-3.1 1.2-4.6-.9-1-2-1-3-1.1l-1.2-.1-12.5-.9-12.5-.8h-1.7ZM349 411.6l4.5-.3c4.1-.3 8.4-.7 12.5-.4 3 .2 3.1 4.7.3 5.4-3 .7-6 .9-9 1-1.8 0-3.6 0-5.3.3l-3.6.2c-2.4.2-5 .5-7.3.1-2.5-.4-2.8-4.4-.5-5.3a19 19 0 0 1 5.7-.8c1 0 1.8 0 2.7-.2ZM345.5 425.4c3-1 2.8-5.3-.5-5.7-2.8 0-5.7.6-8.5 1l-4 .8-2.6.4c-2.2.2-4.8.6-6 2.1-1.2 2.4.5 4.6 3 4.4 6.2-.7 12.6-1.7 18.6-3Z" fill="#000"/></g><g transform="translate(-161 -83)"><path d="M515 571.8c10-.8 20.3-.7 29.5 3.7 4.7 2.3 8.8 6 9.7 11.5.9 5.2-1.1 9.9-4 14a60.7 60.7 0 0 1-20.7 16.6c-16.5 8.7-34 12-52.5 13.7a90 90 0 0 1-59.1-12.1 42.2 42.2 0 0 1-16-16c-2.6-5.3-2.3-12 1.9-16.4 4.8-5.2 12.4-7.2 19.2-7.9a92.7 92.7 0 0 1 44.8 8.5 117.7 117.7 0 0 1 47.2-15.6Z" fill="#000"/><path d="M540.4 580a85 85 0 0 1-12.1 8.3c-2.7 1.5-3.8 4.1-5.5 6.6a30.2 30.2 0 0 1-5.7 6.7c-3-1-6-2.8-9.1-3.5-3 .5-6 1.9-8.9 2.7-10 2.8-20.7 5-31.1 4.9-3 0-5.8.2-8.7.8.3 2.5-.5 4.7 2.9 5 14.6.9 29.7-2 43.6-6.6 4.7-2.1 7.7 3 12.8 1.7 4.4-1.3 7.4-6.6 10-10 1.7-2.9 4.4-4.2 7-6 3.8-2.1 7-4.8 10.4-7.4 1.5 2.6 3.2 4.7 2.5 7.8-1.4 6.4-6.6 11-11.5 15a107 107 0 0 1-44.3 17.6c-14.4 2-28 4.2-42.6 1.5A78.8 78.8 0 0 1 414 609c-3.8-3.4-8.4-8.5-7.8-14 .3-3.8 3.9-6.3 7-7.7a51 51 0 0 1 25.2-2.2 89.4 89.4 0 0 1 25.4 7.2c1.6.7 3.4 1.7 5 1.5 3.2-1.2 5.8-3.5 8.8-5A102 102 0 0 1 506 579c11.4-2 23.3-2.9 34.5 1Z" fill="#fff"/></g><g transform="translate(-161 -83)"></g><g transform="translate(-161 -83)"></g><g transform="translate(-161 -83)"><g fill="#000"><path d="M546 236.8a220 220 0 0 1 141.8 52.3 189.7 189.7 0 0 1 60.4 97.9c5.5 21.9 6.6 44.4 4.3 66.8-.4 1.8-.5 5.6-3 5.6-4.2.2-8.5 0-12.7 1.2a64.9 64.9 0 0 0-31.2 17c-1 1-2 2.2-3.6 1.8-1.6 0-2.3-2-2.1-3.4.3-3 1.5-6 2.1-9 1.6-6.7 1.9-13.2 2.5-20 .6-6.8-.3-13.3-.9-20-.4-3.8-1.2-7.3-2-11a54.2 54.2 0 0 1-26.5-7c-15.8-9-27.3-25-35.5-40.8-9.8-19-16-40-20.2-60.8a441.8 441.8 0 0 1-91.2 25.9 561.7 561.7 0 0 1-101.2 9 386 386 0 0 1-71.2-6c-2-.4-3.5-1.1-3.6-3.3 1-3.8 4-7.3 6.5-10.3 9-11 19-21 29.9-30.1A242 242 0 0 1 546 236.8Z"/><path d="M718.6 474.6c0 1 .3 2.7-.5 3.5-2.2 2.4-5.1 4.2-7.6 6.4-2.6 2.2-4.8 4.9-7.5 6.9-2.7.5-4-2-2.7-4.1 2.7-3.8 6.7-6.8 10.2-9.8 2.7-2 4.5-4.7 8-3Z"/></g><path d="M520.2 243.8c41.3-4.2 83.5 2.8 120.8 21.2a194.1 194.1 0 0 1 79.2 70.7 181 181 0 0 1 26.4 118 68 68 0 0 0-38.6 14c2.8-16.5 3.5-33.4 0-49.8-.7-2.4-1.2-5.3-2.8-7.1-1.6-1.2-4.3-.8-6.2-1-8 .2-16-2.8-22.9-7a87.5 87.5 0 0 1-27.6-30.3 211 211 0 0 1-22.2-60.5c-.8-3.3-1.1-6.8-2.3-10-.9-1.4-2.4-1.8-4-1.2-3.6 1.3-7.1 3-10.7 4.3a443.8 443.8 0 0 1-82.3 22.5 588.4 588.4 0 0 1-81 8.7c-14.6.2-29.4.4-44-.4-14.3-1-28.4-2.4-42.5-4.8a232.8 232.8 0 0 1 160.7-87.3Z" fill="#e5d7a3"/></g><g transform="translate(-161 -83)"></g></g></svg>