<svg xmlns="http://www.w3.org/2000/svg" viewBox="0 0 256 256" fill="none" shape-rendering="auto"><metadata xmlns:rdf="http://www.w3.org/1999/02/22-rdf-syntax-ns#" xmlns:xsi="http://www.w3.org/2001/XMLSchema-instance" xmlns:dc="http://purl.org/dc/elements/1.1/" xmlns:dcterms="http://purl.org/dc/terms/"><rdf:RDF><rdf:Description><dc:title>Croodles - Doodle your face</dc:title><dc:creator>vijay verma</dc:creator><dc:source xsi:type="dcterms:URI">https://www.figma.com/community/file/966199982810283152</dc:source><dcterms:license xsi:type="dcterms:URI">https://creativecommons.org/licenses/by/4.0/</dcterms:license><dc:rights>Remix of „Croodles - Doodle your face” (https://www.figma.com/community/file/966199982810283152) by „vijay verma”, licensed under „CC BY 4.0” (https://creativecommons.org/licenses/by/4.0/)</dc:rights></rdf:Description></rdf:RDF></metadata><mask id="viewboxMask"><rect width="256" height="256" rx="0" ry="0" x="0" y="0" fill="#fff" /></mask><g mask="url(#viewboxMask)"><path d="M174.2 103.2c.4.4.5 1 .3 1.5.3.1.5.3.7.6 2.3 4.5 4.5 9.8 6.4 15.5l.7-.2 1.7-.7c1-.3 2.1-.6 3.3-.7 1.1 0 2.4.1 3.5.9 1 .7 1.8 2 2.2 3.5 1.3 5.7 1.3 9.3 0 15.2a7 7 0 0 1-2.1 4c-1 .7-2 1-3 1.1a159.9 159.9 0 0 1 2.6 21.4c0 2.7-.1 5-.4 7-.4 2-1 3.7-1.9 5a38.7 38.7 0 0 1-18.6 10.3 150.8 150.8 0 0 1-59.5 4.1 62 62 0 0 1-24-7.5c-4.3-2.7-7.3-8-9.4-14.3a91.6 91.6 0 0 1-4.1-22.5c-3.3 0-7.4-3.2-9.8-11.2-1.3-4.7-1-8.7 1.1-11.2 2.2-2.4 5.7-2.8 9.5-1.7.8-5.8 2.2-10.7 4.1-14l.5-.4a38 38 0 0 1 16.2-12.6 90.5 90.5 0 0 1 26.2-7.5c19.2-2.5 40.6.5 53.8 14.4Z" fill="#ffffff"/><g stroke="#000" stroke-width="3" stroke-linecap="round" stroke-linejoin="round"><path d="M174.8 105c11.3 21.8 19.2 65 13.4 72.3C175 194 109 199 86 184.2c-15.5-10-16.5-61.2-8.3-75M183 121.7c3-1 8.5-3.8 9.8 1.8 1.3 5.6 1.3 9 0 15-.7 3-2.3 4-4.3 4"/><path d="M72.2 124.3c-7.6-2.4-12.1 2-9.4 11.4 2.6 9 7 10.8 9.4 10.3"/></g><g transform="translate(112 122)"><path d="M20.8 8c2.7 8 7.6 25.3 5.8 29.4-2.1 5-5.4-2.3-5.4 3.5-1 2.8-3.8 3.2-5.1-1.6-1.3-4.7-5.2 3.5-6.5 1.6-3.6-1.6-.7-7.1 1.2-8.9" stroke="#000" stroke-width="3" stroke-linecap="round" stroke-linejoin="round"/></g><g transform="translate(63 112)"><path d="M39.9 60.7c1.6 5.1.7 14.8 1.8 18.2M72.7 79.2c-.6-3.3-.7-6.4 0-11.3M74.8 63.1c0-1.8 0-2.7-1.3-4.9M51.4 60.7c0-2.3 0-3.4.6-5M47 51.5c1.2-1 2.1-2.1 2.6-2.9M65.2 59.5c.3-1.6 0-4.4 0-5.3M36.3 49.2c.8-1 3.4-3.2 3.4-4M106 47.2c1.2.4 4 2.2 5 2M41.5 54.7c.7 1.4 2.6 3.4 3.2 4.2M83.5 56c-.5-1.5-2-3.9-2.5-4.7M92.2 51.6c-.6-1.8-.7-3.3-1-4M99.1 44c-1.5-1-2.6-2.2-3.4-2.6M109 69.4a19 19 0 0 0-6-7.9M47.4 64.5c1 3.7-2.3 9.8 0 12.6M27.7 69.4C30 68 33 63.8 33.7 58M29.2 53.7c-3.7 4.8-3.8 5-6.5 8M58.3 80.4A14.7 14.7 0 0 1 56.6 67M65.7 77.6c0-1.8 0-3.8-3-7.6M92.3 76.8c.8-1.7-2.6-6.2-4.4-7.4M116.7 64c.6-1.7-1.5-4.7-6-7.8M100.8 75c-.6-3.7-1.9-7.7-3-9.8M87 60.7c.7-.3 2.6-.1 4 3.2M98.3 53.6c.5.4 3 .7 5.2 1.7M81 67.2c1.3 3 .8 6.4 0 11.1" stroke="#000" stroke-width="3" stroke-linecap="round" stroke-linejoin="round"/></g><g transform="translate(98 168)"><g stroke="#000" stroke-width="3" stroke-linecap="round" stroke-linejoin="round"><path d="M11 11.2c3 1.1 9.3 3 24.3 1.7C54 11.2 54.3 9.6 58.7 7"/><path d="M35.7 7.6A36.7 36.7 0 0 0 17 12.7c15.7 12.4 34.8 0 34.8-2.6-2.4-1-2.4-3.3-16-2.5Z"/></g></g><g transform="translate(-3 -1)"><g stroke="#699bf7" stroke-width="3" stroke-linecap="round" stroke-linejoin="round"><path d="M86.3 99.9c-5.8-4-11-6.4-16.1-7.5M82.3 102.2C78.8 101 75.9 101 69 101M91 97.6c-4.1-4-11.6-11-13.4-13.3M93.2 94c-3-2.2-9.6-8.6-11-15.5M86.9 77.4c.5 1.9 2 7.4 6.9 13.2 2.9 3.5 5.2 5.2 7 8.1M91.5 76.2c1.1 5.2 5.2 13.3 10.4 16.2M105.3 95.8c-5.2-4-8.6-15.5-9.2-21.9M100.1 70.5c0 4 0 15 6.4 19M105.3 72.8c2 4.9 6 16.7 6 24.3M111.4 84.9a42 42 0 0 1-1.2-14.4M114.5 77.4c.4 4.2 2 13.6 5.2 17.3"/><path d="M119.2 68.7c-.8 4.6-3 17.9-.6 24.2M120.9 80.3c1 4 4 11 8.6 13.8"/><path d="M126 90c-2.8-6.9-2.1-15.6-1.7-20.7M127.2 74c0 2 1.2 8.3 5.8 16.6"/><path d="M133 68.7a44 44 0 0 0 0 22M135.9 75.6a39.3 39.3 0 0 0 4.6 22M142.2 90c1.2-9.2-1.2-14.4-2.3-19M143.4 82c3.4 5.8 4 9.8 3.4 15M145.3 78c-.6-2.2-1.4-7.3 0-11M78.8 91.2a19 19 0 0 1-7.5-4M154.2 80.7c.8-2.3 1.6-9.3 1.2-12.5M150.3 69.3a66.1 66.1 0 0 0 1.7 26.5M156.2 96c-.4-2.4-1.1-8.1 0-11.7M160 94c-.3-3.4-1.2-15.6 3-20.7M164.1 95.8V79.7M174 81.4c-2.2 1.2-8.2 7-9.9 14.4M172.2 72.8c-1.3 1.2-4 4.8-4.6 9.2M177.4 79.7c-2 3.2-5.8 11.2-5.8 16.7M182.6 83.1c-3.1 3.5-9.5 11-10.4 13.3M186 94.7s-5.7 1.7-10.4 5.7"/></g></g><g transform="translate(68 149)"></g><g transform="translate(71 103)"><g stroke="#000" stroke-width="3" stroke-linecap="round" stroke-linejoin="round"><path d="M34.8 27.8c3.3.6 11-.1 14.7-7.9M65.2 15c.5 2.7 2.7 8.5 7.4 10.8 4.6 2.3 8.8 2.3 10.3 2M21.2 40.5a134 134 0 0 1 27.1-5M21 42.7c6.8-1.3 20.5-4.5 25.2-5.2M67.3 34.8c7.1-1.3 22.3 2.4 26.3 4.1"/><path d="M66.7 35.2c7.1-1.2 20.6 3.7 24.6 5.5"/><path d="M66.5 36.1c7-1.3 21.6 4.9 25.6 6.7"/><path d="M66.5 37.5c7-1.3 21.6 5 25.6 6.9M25 41.3c6.5-2.3 20.5-6.6 24-5.2M24 45c6.6-2.3 20.3-6.2 24-7"/></g></g></g></svg>