<svg width="180.000000" height="180.000000" viewBox="0 0 180 180" fill="none" xmlns="http://www.w3.org/2000/svg" xmlns:xlink="http://www.w3.org/1999/xlink">
	<desc>
			Created with Pixso.
	</desc>
	<defs/>
	<circle id="Ellipse 23" r="90.000000" transform="matrix(1 -2.77556e-17 2.77556e-17 1 90 90)" fill="#BEDB39" fill-opacity="1.000000"/>
	<path id="Union" d="M90 9C45.26 9 9 45.26 9 90C9 134.73 45.26 171 90 171C134.73 171 171 134.73 171 90C171 45.26 134.73 9 90 9ZM12.45 90C12.45 47.17 47.17 12.46 90 12.46C132.82 12.46 167.54 47.17 167.54 90C167.54 132.82 132.82 167.54 90 167.54C47.17 167.54 12.45 132.82 12.45 90Z" fill="#1B1F21" fill-opacity="1.000000" fill-rule="evenodd"/>
	<path id="Star 4" d="M90 60L92.8 83.09L105.62 74.08L96.77 87.14L117 90L96.77 92.85L105.62 105.91L92.8 96.9L90 120L87.19 96.9L74.37 105.91L83.22 92.85L63 90L83.22 87.14L74.37 74.08L87.19 83.09L90 60Z" fill="#1B1F21" fill-opacity="1.000000" fill-rule="nonzero"/>
	<path id="Vector" d="M93.01 40.65L95.7 41.24L98.19 29.9L101.43 36.77L102 36.89L107.83 31.93L105.33 43.33L108.03 43.92L111.36 28.76L108.4 28.12L102.59 33.12L99.31 26.14L96.35 25.5L93.01 40.65ZM77.49 42.31L80.39 42L81.6 37.22L87.23 36.63L89.41 41.07L92.43 40.75L84.89 25.94L81.79 26.26L77.49 42.31ZM82.27 34.61L83.62 29.33L86.03 34.22L82.27 34.61ZM63.21 40.03C62.83 39.16 62.64 38.31 62.64 37.52C62.64 35.62 63.69 34.06 65.58 33.24C67.51 32.41 69.23 32.83 70.47 34.26L72.71 32.44C70.84 30.15 67.75 29.45 64.54 30.83C61.49 32.14 59.75 34.84 59.75 37.84C59.75 38.94 59.99 40.08 60.48 41.21C62.32 45.44 66.7 47.25 70.87 45.46C73.77 44.22 75.39 41.87 75.39 39.18C75.39 38.19 75.17 37.15 74.71 36.11L74.18 34.87L66.17 38.31L67.17 40.61L72.44 38.34C72.59 38.72 72.66 39.1 72.66 39.48C72.66 40.94 71.58 42.32 69.85 43.06C67.08 44.25 64.51 43.03 63.21 40.03ZM110.49 45.5L113.06 46.75L119.93 32.82L117.36 31.57L110.49 45.5ZM115.52 47.56L117.63 49.24L124.81 40.34L123.44 53.88L125.82 55.78L135.59 43.68L133.46 41.99L126.32 50.83L127.67 37.36L125.28 35.46L115.52 47.56ZM48.9 48.87C49.03 49.39 49.36 49.93 49.89 50.5C50.4 51.06 50.91 51.42 51.41 51.6C51.93 51.77 52.42 51.79 52.9 51.65C53.38 51.52 53.81 51.27 54.21 50.9C54.61 50.54 54.89 50.13 55.06 49.68C55.17 49.41 55.22 49.13 55.22 48.84Q55.22 48.53 55.14 48.21C55.02 47.68 54.7 47.14 54.18 46.58C53.66 46.01 53.14 45.64 52.63 45.48C52.11 45.31 51.62 45.29 51.15 45.44C50.69 45.57 50.26 45.81 49.86 46.17C49.46 46.54 49.17 46.95 48.99 47.41C48.88 47.68 48.82 47.97 48.82 48.26C48.82 48.46 48.85 48.66 48.9 48.87ZM135.5 55.25C138.22 53.5 141.03 54.01 142.62 56.46C143.16 57.28 143.41 58.1 143.41 58.88C143.41 59.79 143.08 60.65 142.43 61.42L144.6 63.32C145.63 62.15 146.17 60.72 146.17 59.21C146.17 57.85 145.74 56.41 144.84 55.04C142.38 51.25 137.74 50.29 133.88 52.77C131.39 54.37 130.06 56.82 130.06 59.38C130.06 60.82 130.49 62.3 131.38 63.67C133.73 67.28 137.72 68.19 141.3 65.89L142.43 65.16L137.7 57.88L135.59 59.24L138.7 64.03C136.99 65.06 134.88 64.25 133.59 62.27C133.02 61.39 132.74 60.48 132.74 59.6C132.74 57.96 133.7 56.41 135.5 55.25ZM37.88 67.59C35.91 66.54 34.87 64.93 34.87 63.19C34.87 62.41 35.08 61.6 35.5 60.8C36.5 58.96 38.1 58.22 39.96 58.58L40.59 55.77C37.69 55.14 34.83 56.5 33.18 59.56C32.5 60.81 32.18 62.12 32.18 63.39C32.18 66.14 33.7 68.72 36.47 70.2C40.56 72.38 45.13 71.09 47.28 67.12C47.96 65.86 48.29 64.58 48.29 63.37C48.29 60.94 46.96 58.75 44.45 57.41L43.26 56.77L39.13 64.41L41.35 65.59L44.07 60.56C45.12 61.17 45.64 62.23 45.64 63.43C45.64 64.21 45.42 65.05 44.98 65.87C43.55 68.51 40.78 69.14 37.88 67.59ZM40.86 88.31L41.33 85.66L30.02 83.69L42.61 78.36L43.14 75.37L27.77 72.69L27.3 75.36L38.53 77.32L26.02 82.64L25.5 85.63L40.86 88.31ZM146.59 73.71C146.07 73.58 145.43 73.61 144.68 73.79C143.94 73.97 143.37 74.23 142.97 74.59C142.57 74.95 142.32 75.37 142.21 75.86C142.16 76.08 142.13 76.31 142.13 76.54Q142.13 76.94 142.23 77.36C142.36 77.88 142.58 78.33 142.9 78.69C143.22 79.07 143.64 79.33 144.16 79.47C144.68 79.62 145.31 79.6 146.05 79.42C146.81 79.24 147.38 78.96 147.78 78.6C148.17 78.23 148.42 77.81 148.52 77.33C148.57 77.11 148.6 76.89 148.6 76.65C148.6 76.39 148.57 76.12 148.5 75.85C148.37 75.33 148.15 74.88 147.83 74.5C147.52 74.12 147.11 73.86 146.59 73.71ZM41.45 93.93L41.31 91.08L25.73 91.86L25.87 94.71L41.45 93.93ZM147.28 94.18C150.15 94.63 151.85 96.47 151.85 98.92C151.85 99.21 151.83 99.51 151.78 99.81C151.45 101.88 150.17 103.1 148.3 103.37L148.64 106.23C151.58 105.88 153.84 103.66 154.39 100.22C154.46 99.76 154.5 99.3 154.5 98.86C154.5 95.01 151.82 91.9 147.75 91.26C143.17 90.53 139.28 93.25 138.57 97.7C138.49 98.19 138.45 98.66 138.45 99.12C138.45 102.68 140.73 105.35 144.45 105.94L145.79 106.16L147.16 97.59L144.67 97.2L143.77 102.84C142.08 102.52 141.08 100.98 141.08 99.06C141.08 98.76 141.1 98.45 141.16 98.13C141.63 95.17 144.04 93.66 147.28 94.18ZM45.62 111.5L44.84 108.88L33.66 112.22L38.12 106.07L37.96 105.51L30.77 102.84L42.01 99.49L41.21 96.85L26.27 101.31L27.14 104.2L34.36 106.82L29.81 113.06L30.68 115.96L45.62 111.5ZM137.7 104.83L136.41 107.43L139.83 111.01L137.32 116.05L132.38 115.52L131.04 118.22L147.66 119.8L149.04 117.02L137.7 104.83ZM54.47 124.08L52.8 121.71L48.01 122.98L44.76 118.37L47.6 114.32L45.86 111.84L36.49 125.59L38.28 128.13L54.47 124.08ZM141.69 112.96L145.45 116.92L140.01 116.34L141.69 112.96ZM130.8 118.67L128.87 120.61L137.18 128.76L129.62 127.82L129.21 128.23L130.31 135.79L121.95 127.6L120.01 129.56L131.12 140.45L133.25 138.3L132.09 130.74L139.78 131.71L141.91 129.56L130.8 118.67ZM45.39 123.66L40.1 125.05L43.22 120.58L45.39 123.66ZM59.22 137.59C57.22 140.14 54.4 140.58 52.09 138.78C50.92 137.88 50.34 136.76 50.34 135.56C50.34 135.07 50.44 134.56 50.63 134.04L47.95 132.96C47.64 133.73 47.48 134.52 47.48 135.32C47.48 137.33 48.49 139.33 50.46 140.86C54.04 143.63 58.74 143.02 61.56 139.41C62.79 137.84 63.4 136.07 63.4 134.34C63.4 132.07 62.35 129.88 60.32 128.3C56.91 125.66 52.84 126.1 50.22 129.45L49.39 130.51L56.27 135.84L57.82 133.86L53.29 130.35C54.56 128.82 56.82 128.9 58.7 130.35C59.98 131.34 60.62 132.62 60.62 133.99C60.62 135.16 60.15 136.4 59.22 137.59ZM117.35 130.75L114.91 132.26L123.14 145.44L125.58 143.93L117.35 130.75ZM112.86 133.89L110.3 134.77L114.05 145.56L103.26 137.18L100.37 138.18L105.47 152.84L108.04 151.96L104.32 141.24L115.06 149.55L117.95 148.55L112.86 133.89ZM96 146.5C96 146.54 96 146.58 96 146.62C96 149.78 94.09 151.82 91.19 151.87C89.09 151.9 87.66 150.87 87.07 149.07L84.3 149.9C85.15 152.72 87.74 154.55 91.24 154.49C95.72 154.42 98.98 151.09 98.98 146.6C98.98 146.55 98.98 146.5 98.97 146.45C98.9 141.84 95.54 138.5 91.01 138.56C86.73 138.63 83.86 141.45 83.86 145.61C83.86 145.66 83.86 145.7 83.86 145.75L83.88 147.1L92.6 146.96L92.56 144.46L86.82 144.55C86.85 142.56 88.66 141.21 91.03 141.17C94.04 141.13 95.95 143.23 96 146.5ZM74.04 145.95C74.42 145.59 74.74 145.04 74.99 144.31C75.17 143.78 75.26 143.3 75.26 142.87C75.26 142.72 75.25 142.58 75.23 142.44C75.13 141.91 74.9 141.48 74.55 141.13C74.2 140.78 73.77 140.51 73.26 140.34C72.75 140.17 72.25 140.12 71.77 140.19C71.28 140.26 70.84 140.48 70.44 140.84C70.04 141.2 69.71 141.74 69.47 142.46C69.29 142.98 69.2 143.45 69.2 143.87Q69.2 144.12 69.25 144.35C69.34 144.87 69.57 145.31 69.93 145.64C70.26 145.99 70.69 146.25 71.2 146.42C71.71 146.59 72.21 146.64 72.71 146.58C73.19 146.52 73.64 146.31 74.04 145.95Z" fill="#1B1F21" fill-opacity="1.000000" fill-rule="evenodd"/>
</svg>
