<svg width="48" height="48" viewBox="0 0 48 48" fill="none" xmlns="http://www.w3.org/2000/svg">
<path fill-rule="evenodd" clip-rule="evenodd" d="M3.51472 3.51472C0 7.02944 0 12.6863 0 24C0 35.3137 0 40.9706 3.51472 44.4853C7.02944 48 12.6863 48 24 48C35.3137 48 40.9706 48 44.4853 44.4853C48 40.9706 48 35.3137 48 24C48 12.6863 48 7.02944 44.4853 3.51472C40.9706 0 35.3137 0 24 0C12.6863 0 7.02944 0 3.51472 3.51472ZM16.1507 39.6C16.1507 39.6828 16.0836 39.75 16.0007 39.75H9.54839C9.46554 39.75 9.39839 39.6828 9.39839 39.6V19.6591C9.39839 19.5762 9.46554 19.5091 9.54839 19.5091H16.0007C16.0836 19.5091 16.1507 19.5762 16.1507 19.6591V39.6ZM16.5958 13.2472C16.5958 15.1896 15.1301 16.7438 12.7754 16.7438H12.7314C10.4653 16.7438 9 15.1897 9 13.2472C9 11.2612 10.5104 9.75 12.8201 9.75C15.1302 9.75 16.5519 11.2611 16.5958 13.2472ZM19.8883 39.7496C19.8881 39.7496 19.8882 39.7498 19.8883 39.7496C19.8888 39.6525 19.9729 22.1918 19.8939 19.6559C19.8912 19.5704 19.9599 19.5086 20.0455 19.5086H26.4907C26.5735 19.5086 26.6407 19.5758 26.6407 19.6586V22.3745C27.5381 20.9954 29.1442 19.0339 32.7261 19.0339C37.1687 19.0339 40.5 21.9267 40.5 28.1439V39.5998C40.5 39.6827 40.4328 39.7499 40.35 39.7499H33.8981C33.8152 39.7499 33.7481 39.6827 33.7481 39.5998V28.9214C33.7481 26.2004 32.7706 24.3442 30.3272 24.3442C28.4619 24.3442 27.3508 25.5961 26.8627 26.8047C26.6844 27.2372 26.6405 27.8415 26.6405 28.4465V39.6C26.6405 39.6828 26.5734 39.75 26.4905 39.75L19.8883 39.7496Z" fill="#757778"/>
</svg>
