<svg width="173" height="64" viewBox="0 0 173 64" fill="none" xmlns="http://www.w3.org/2000/svg">
<path d="M2.24839 0.496509L4.5574 2.42186V11.0997H17.0393L18.7366 13.2402L17.0338 15.2759H4.5574V23.5731L2.24839 25.4985L0 23.5731V2.42186L2.24839 0.496509ZM8.99907 22.365H18.5162L20.1088 24.3951L18.4115 26.5412H8.99907L7.46157 24.5606L8.99907 22.365ZM9.32972 0H18.4059L20.1033 2.14051L18.4059 4.17619H9.43993L7.62689 2.20119L9.32972 0ZM59.913 4.12102L61.9465 6.3167L59.913 8.51789H29.1795L27.2011 6.3167L29.1795 4.12102H59.913ZM25.5534 13.2458L27.4711 11.5962L29.3944 13.2458V15.6676C29.3944 19.7335 30.491 23.0821 35.3791 23.0821H36.3655C40.7576 23.0821 43.1713 20.1141 43.1713 15.4966V13.1906L45.0395 11.5411L46.9627 13.1354V15.6621C46.9627 19.7831 48.1696 22.8615 52.8923 22.8615H53.7134C58.3259 22.8615 59.147 19.3418 59.2021 15.4966V13.0251L61.0703 11.4859L63.0431 13.0803V15.5518C62.988 20.881 61.5607 26.9825 53.8787 26.9825H53.0576C48.5002 26.9825 46.0314 24.9468 45.045 22.4201C43.8932 25.002 40.8182 27.2583 36.6466 27.2583H35.6546C27.7522 27.2583 25.614 22.4808 25.5589 15.7724V13.2458H25.5534ZM41.2536 53.0216L40.1569 50.0536L43.0115 49.2316L53.0576 53.7885V44.3934L55.0911 42.6887L57.1741 44.3934V55.769L60.9049 57.4737L61.9465 60.221L59.0368 61.2637L41.2536 53.0216ZM59.147 32.9627L61.8914 34.226L61.0151 37.0285L36.3104 48.5144L33.3456 47.3614L34.5525 44.5037L59.147 32.9627ZM23.5034 48.6248L25.9171 50.6053C25.6967 57.584 19.712 61.2637 12.6362 61.2637H11.9198C8.40391 61.2637 4.29288 59.9452 1.65874 57.4185L1.93428 54.616L4.51331 54.285C6.43657 55.9345 9.12582 57.0875 11.6497 57.0875H12.4213C17.1991 57.0875 20.8748 55.1125 21.2605 50.4398L23.5034 48.6248ZM21.2495 44.0624C21.0291 39.2242 17.4085 37.3044 12.4102 37.3044H11.6387C8.67394 37.3044 6.42555 38.4574 4.50229 40.1069L1.92326 39.7759L1.64772 36.9734C4.28186 34.3915 7.95754 33.1833 11.8041 33.1833H12.57C19.7065 33.1833 25.6912 36.8134 25.9061 43.8969L23.4924 45.8223L21.2495 44.0624Z" fill="#FCFAF9"/>
<path d="M85.9865 7.98883H80.3766C80.5033 9.08115 81.2638 9.8866 82.3825 9.8866C83.0603 9.8866 83.694 9.61628 84.0578 9.0646L85.8432 9.11425C85.2095 10.521 83.8979 11.2658 82.3825 11.2658C80.2663 11.2658 78.7013 9.68248 78.7013 7.50335C78.7013 5.31871 80.2333 3.75195 82.3384 3.75195C84.2506 3.75195 85.9865 5.03184 85.9865 7.9778V7.98883ZM80.3766 6.83583H84.2176C84.1404 5.92004 83.3965 5.12563 82.3549 5.12563C81.2913 5.12563 80.5639 5.82074 80.3766 6.83583Z" fill="#FCFAF9"/>
<path d="M91.4698 5.87039C90.9297 5.3463 90.1417 5.09804 89.6071 5.09804C88.9899 5.09804 88.6758 5.42905 88.6758 5.76006C88.6758 6.15726 88.8522 6.34483 89.3371 6.52137L90.5715 6.94616C91.8996 7.40405 92.4507 8.13227 92.4507 9.02046C92.4507 10.1624 91.58 11.2658 89.7945 11.2658C88.6262 11.2658 87.469 10.7913 86.7911 10.1404L87.7225 8.92116C88.2625 9.45629 89.0946 9.8535 89.7614 9.8535C90.3952 9.8535 90.803 9.58317 90.803 9.15838C90.803 8.70049 90.5825 8.51292 89.789 8.2426L88.6042 7.82884C87.6067 7.48129 87.0557 6.73652 87.0557 5.85384C87.0557 4.81117 87.9539 3.75195 89.6622 3.75195C90.4999 3.75195 91.6241 4.08296 92.3625 4.77807L91.4698 5.87039Z" fill="#FCFAF9"/>
<path d="M97.234 9.88604C98.0551 9.88604 98.6888 9.48883 99.0525 8.84337L100.414 9.53848C99.8461 10.5977 98.5951 11.2652 97.2395 11.2652C95.1233 11.2652 93.4646 9.69847 93.4646 7.51383C93.4646 5.31264 95.1233 3.74588 97.2395 3.74588C98.6006 3.74588 99.8461 4.40789 100.414 5.47263L99.0525 6.16774C98.6888 5.51676 98.0551 5.12507 97.234 5.12507C95.9389 5.12507 95.0517 6.15119 95.0517 7.51383C95.0517 8.87647 95.9389 9.88604 97.234 9.88604Z" fill="#FCFAF9"/>
<path d="M101.703 8.47975V3.93945H103.285V8.27563C103.285 9.40105 104.029 9.90308 104.96 9.90308C105.891 9.90308 106.635 9.39553 106.635 8.27563V3.93945H108.2V8.47975C108.2 9.98031 107.016 11.2657 104.96 11.2657C102.905 11.2657 101.703 9.98031 101.703 8.47975Z" fill="#FCFAF9"/>
<path d="M116.891 7.98883H111.281C111.408 9.08115 112.168 9.8866 113.287 9.8866C113.965 9.8866 114.598 9.61628 114.962 9.0646L116.748 9.11425C116.114 10.521 114.802 11.2658 113.287 11.2658C111.171 11.2658 109.606 9.68248 109.606 7.50335C109.606 5.31871 111.138 3.75195 113.243 3.75195C115.155 3.75195 116.891 5.03184 116.891 7.9778V7.98883ZM111.281 6.83583H115.122C115.045 5.92004 114.301 5.12563 113.259 5.12563C112.196 5.12563 111.468 5.82074 111.281 6.83583Z" fill="#FCFAF9"/>
<path d="M119.922 11.0721H118.357V0H119.922V11.0721Z" fill="#FCFAF9"/>
<path d="M126.006 6.27863C126.006 5.51732 125.438 5.12563 124.518 5.12563C123.746 5.12563 123.046 5.45663 122.512 5.88694L121.768 4.71739C122.369 4.19329 123.377 3.75195 124.628 3.75195C126.507 3.75195 127.582 4.79462 127.582 6.31725V11.0782H126V10.3335C125.587 10.9955 124.705 11.2658 123.961 11.2658C122.336 11.2658 121.388 10.3335 121.388 9.02046C121.388 7.63024 122.369 6.83583 123.961 6.83583H125.493C125.857 6.83583 126 6.67584 126 6.39448V6.27863H126.006ZM126.006 8.46327V7.84539C125.862 7.95573 125.609 8.00538 125.245 8.00538H124.297C123.46 8.00538 123.035 8.36949 123.035 8.97081C123.035 9.52249 123.449 10.03 124.297 10.03C125.185 10.03 126.006 9.57214 126.006 8.46327Z" fill="#FCFAF9"/>
<path d="M80.7403 27.7929H79.1753V16.7207H80.7403V21.7189C81.1206 21.0072 82.1125 20.4666 83.1596 20.4666C85.2316 20.4666 86.7305 22.0333 86.7305 24.218C86.7305 26.4026 85.1986 27.9804 83.1265 27.9804C82.1015 27.9804 81.1371 27.4729 80.7403 26.7612V27.7929ZM80.6908 24.218C80.6908 25.5806 81.589 26.6233 82.9006 26.6233C84.1956 26.6233 85.1104 25.5806 85.1104 24.218C85.1104 22.8553 84.1956 21.8292 82.9006 21.8292C81.589 21.8292 80.6908 22.8609 80.6908 24.218Z" fill="#FCFAF9"/>
<path d="M92.3074 22.0505H91.4863C90.4723 22.0505 89.811 22.6353 89.811 24.2517V27.7935H88.246V20.6603H89.778V21.8022C90.048 21.0134 90.7589 20.5389 91.7508 20.5389C91.9272 20.5389 92.1145 20.5555 92.3019 20.5886V22.0505H92.3074Z" fill="#FCFAF9"/>
<path d="M95.4981 27.793H93.9165V21.9562H92.8419V20.6598H95.4981V27.793ZM94.6109 16.9746C95.2281 16.9746 95.7351 17.4822 95.7351 18.1C95.7351 18.7179 95.2281 19.2089 94.6109 19.2089C93.9937 19.2089 93.5032 18.7179 93.5032 18.1C93.5032 17.4822 93.9937 16.9746 94.6109 16.9746Z" fill="#FCFAF9"/>
<path d="M99.4934 17.7812V20.661H101.169V21.9574H99.4934V25.9571C99.4934 26.4481 99.8571 26.5419 100.221 26.5419C100.772 26.5419 101.185 26.4757 101.185 26.4757V27.7887C101.185 27.7887 100.408 27.8659 99.824 27.8659C98.9699 27.8659 97.9118 27.6894 97.9118 26.2991V21.9574H96.7435V20.661H97.9118V17.7812H99.4934Z" fill="#FCFAF9"/>
<path d="M106.668 23.0043C106.668 22.243 106.101 21.8513 105.181 21.8513C104.404 21.8513 103.709 22.1823 103.175 22.6126L102.431 21.4431C103.031 20.919 104.04 20.4776 105.291 20.4776C107.17 20.4776 108.245 21.5203 108.245 23.0429V27.8039H106.663V27.0591C106.25 27.7211 105.368 27.9915 104.624 27.9915C102.998 27.9915 102.05 27.0591 102.05 25.7461C102.05 24.3559 103.031 23.5615 104.624 23.5615H106.156C106.52 23.5615 106.663 23.4015 106.663 23.1202V23.0043H106.668ZM106.668 25.1834V24.5655C106.525 24.6759 106.272 24.7255 105.908 24.7255H104.96C104.122 24.7255 103.698 25.0896 103.698 25.691C103.698 26.2426 104.111 26.7502 104.96 26.7502C105.847 26.7502 106.668 26.2923 106.668 25.1834ZM104.85 16.7207H106.812L105.451 19.3963H103.935L104.85 16.7207Z" fill="#FCFAF9"/>
<path d="M111.694 21.074C111.694 21.2782 111.694 21.4051 111.678 21.5485C112.278 20.8534 113.099 20.4727 114.003 20.4727C115.679 20.4727 116.659 21.5154 116.659 23.1483V27.799H115.078V23.369C115.078 22.3539 114.461 21.8795 113.673 21.8795C112.995 21.8795 112.328 22.227 111.727 22.9222V27.7935H110.162V20.6603H111.694V21.074Z" fill="#FCFAF9"/>
<path d="M120.462 27.793H118.88V21.9562H117.806V20.6598H120.462V27.793ZM119.575 16.9746C120.192 16.9746 120.699 17.4822 120.699 18.1C120.699 18.7179 120.192 19.2089 119.575 19.2089C118.957 19.2089 118.467 18.7179 118.467 18.1C118.472 17.4822 118.957 16.9746 119.575 16.9746Z" fill="#FCFAF9"/>
<path d="M125.741 26.607C126.562 26.607 127.196 26.2098 127.56 25.5643L128.921 26.2594C128.353 27.3186 127.102 27.9861 125.747 27.9861C123.631 27.9861 121.972 26.4194 121.972 24.2347C121.972 22.0336 123.631 20.4668 125.747 20.4668C127.108 20.4668 128.353 21.1288 128.921 22.1935L127.56 22.8887C127.196 22.2377 126.562 21.846 125.741 21.846C124.446 21.846 123.559 22.8721 123.559 24.2347C123.559 25.5974 124.441 26.607 125.741 26.607Z" fill="#FCFAF9"/>
<path d="M134.366 23.0052C134.366 22.2439 133.798 21.8522 132.878 21.8522C132.106 21.8522 131.406 22.1832 130.872 22.6135L130.128 21.4439C130.728 20.9199 131.737 20.4785 132.988 20.4785C134.867 20.4785 135.942 21.5212 135.942 23.0438V27.8048H134.36V27.06C133.947 27.722 133.065 27.9924 132.321 27.9924C130.695 27.9924 129.748 27.06 129.748 25.747C129.748 24.3568 130.728 23.5624 132.321 23.5624H133.853C134.217 23.5624 134.36 23.4024 134.36 23.121V23.0052H134.366ZM134.366 25.1843V24.5664C134.222 24.6768 133.969 24.7264 133.605 24.7264H132.657C131.82 24.7264 131.395 25.0905 131.395 25.6919C131.395 26.2435 131.809 26.7511 132.657 26.7511C133.544 26.7511 134.366 26.2932 134.366 25.1843Z" fill="#FCFAF9"/>
<path d="M146.754 26.7505C146.373 27.4622 145.409 27.9863 144.368 27.9863C142.295 27.9863 140.78 26.403 140.78 24.2238C140.78 22.0392 142.268 20.4724 144.334 20.4724C145.393 20.4724 146.373 21.0131 146.77 21.7248C146.754 21.2338 146.754 20.649 146.754 20.0973V16.7266H148.335V27.7987H146.754V26.7505ZM142.395 24.2183C142.395 25.581 143.293 26.6236 144.604 26.6236C145.9 26.6236 146.814 25.581 146.814 24.2183C146.814 22.8557 145.9 21.8296 144.604 21.8296C143.293 21.8296 142.395 22.8612 142.395 24.2183Z" fill="#FCFAF9"/>
<path d="M157.136 24.7096H151.526C151.653 25.8019 152.413 26.6074 153.532 26.6074C154.21 26.6074 154.843 26.337 155.207 25.7854L156.993 25.835C156.359 27.2418 155.047 27.9866 153.532 27.9866C151.416 27.9866 149.851 26.4032 149.851 24.2241C149.851 22.0395 151.383 20.4727 153.488 20.4727C155.4 20.4727 157.136 21.7526 157.136 24.6986V24.7096ZM151.526 23.5566H155.367C155.29 22.6408 154.546 21.8464 153.504 21.8464C152.441 21.8464 151.713 22.5415 151.526 23.5566Z" fill="#FCFAF9"/>
<path d="M83.2202 39.7259C83.2202 38.9646 82.6526 38.5729 81.7323 38.5729C80.9553 38.5729 80.2609 38.9039 79.7264 39.3342L78.9824 38.1647C79.5831 37.6406 80.5916 37.1992 81.8425 37.1992C83.7217 37.1992 84.7963 38.2419 84.7963 39.7645V44.5255H83.2147V43.7807C82.8014 44.4427 81.9197 44.7131 81.1757 44.7131C79.55 44.7131 78.6022 43.7807 78.6022 42.4677C78.6022 41.0775 79.5831 40.2831 81.1757 40.2831H82.7077C83.0714 40.2831 83.2147 40.1231 83.2147 39.8418V39.7259H83.2202ZM83.2202 41.905V41.2871C83.0769 41.3975 82.8234 41.4471 82.4597 41.4471H81.5119C80.6742 41.4471 80.2499 41.8112 80.2499 42.4126C80.2499 42.9642 80.6632 43.4718 81.5119 43.4718C82.3991 43.4718 83.2202 43.0139 83.2202 41.905Z" fill="#FCFAF9"/>
<path d="M90.7699 38.7769H89.9488C88.9348 38.7769 88.2736 39.3617 88.2736 40.9781V44.5198H86.7085V37.3811H88.2405V38.5231C88.5105 37.7342 89.2214 37.2598 90.2133 37.2598C90.3897 37.2598 90.5771 37.2763 90.7644 37.3094V38.7769H90.7699Z" fill="#FCFAF9"/>
<path d="M94.0763 34.5019V37.3816H95.7516V38.678H94.0763V42.6777C94.0763 43.1687 94.44 43.2625 94.8037 43.2625C95.3548 43.2625 95.7681 43.1963 95.7681 43.1963V44.5093C95.7681 44.5093 94.9911 44.5865 94.4069 44.5865C93.5528 44.5865 92.4947 44.41 92.4947 43.0197V38.6725H91.3264V37.3761H92.4947V34.4963H94.0763V34.5019Z" fill="#FCFAF9"/>
<path d="M104.012 41.4302H98.4023C98.5291 42.5226 99.2896 43.328 100.408 43.328C101.086 43.328 101.72 43.0577 102.084 42.506L103.869 42.5557C103.235 43.9624 101.924 44.7072 100.408 44.7072C98.2921 44.7072 96.7271 43.1239 96.7271 40.9448C96.7271 38.7601 98.259 37.1934 100.364 37.1934C102.276 37.1934 104.012 38.4733 104.012 41.4192V41.4302ZM98.4023 40.2772H102.243C102.166 39.3615 101.422 38.567 100.381 38.567C99.3226 38.567 98.5952 39.2677 98.4023 40.2772Z" fill="#FCFAF9"/>
<path d="M109.495 39.3118C108.955 38.7877 108.167 38.5395 107.633 38.5395C107.016 38.5395 106.701 38.8705 106.701 39.2015C106.701 39.5987 106.878 39.7862 107.363 39.9628L108.597 40.3876C109.925 40.8455 110.476 41.5737 110.476 42.4619C110.476 43.6038 109.606 44.7072 107.82 44.7072C106.652 44.7072 105.495 44.2328 104.817 43.5818L105.748 42.3626C106.288 42.8977 107.12 43.2949 107.787 43.2949C108.421 43.2949 108.829 43.0246 108.829 42.5998C108.829 42.1419 108.608 41.9543 107.815 41.684L106.63 41.2702C105.632 40.9227 105.081 40.1779 105.081 39.2952C105.081 38.2526 105.98 37.1934 107.688 37.1934C108.526 37.1934 109.65 37.5244 110.388 38.2195L109.495 39.3118Z" fill="#FCFAF9"/>
<path d="M118.026 43.3296C118.847 43.3296 119.481 42.9324 119.845 42.2869L121.206 42.9821C120.638 44.0413 119.387 44.7088 118.032 44.7088C115.915 44.7088 114.257 43.142 114.257 40.9574C114.257 38.7562 115.915 37.1895 118.032 37.1895C119.393 37.1895 120.638 37.8515 121.206 38.9162L119.845 39.6113C119.481 38.9603 118.847 38.5686 118.026 38.5686C116.731 38.5686 115.844 39.5948 115.844 40.9574C115.849 42.32 116.731 43.3296 118.026 43.3296Z" fill="#FCFAF9"/>
<path d="M126.673 38.7769H125.851C124.837 38.7769 124.176 39.3617 124.176 40.9781V44.5198H122.611V37.3811H124.143V38.5231C124.413 37.7342 125.124 37.2598 126.116 37.2598C126.292 37.2598 126.48 37.2763 126.667 37.3094V38.7769H126.673Z" fill="#FCFAF9"/>
<path d="M134.619 41.4302H129.009C129.136 42.5226 129.896 43.328 131.015 43.328C131.693 43.328 132.326 43.0577 132.69 42.506L134.476 42.5557C133.842 43.9624 132.53 44.7072 131.015 44.7072C128.899 44.7072 127.334 43.1239 127.334 40.9448C127.334 38.7601 128.866 37.1934 130.971 37.1934C132.883 37.1934 134.619 38.4733 134.619 41.4192V41.4302ZM129.009 40.2772H132.85C132.773 39.3615 132.029 38.567 130.987 38.567C129.924 38.567 129.202 39.2677 129.009 40.2772Z" fill="#FCFAF9"/>
<path d="M140.086 39.7259C140.086 38.9646 139.518 38.5729 138.598 38.5729C137.826 38.5729 137.126 38.9039 136.592 39.3342L135.848 38.1647C136.449 37.6406 137.457 37.1992 138.708 37.1992C140.587 37.1992 141.662 38.2419 141.662 39.7645V44.5255H140.08V43.7807C139.667 44.4427 138.785 44.7131 138.041 44.7131C136.416 44.7131 135.468 43.7807 135.468 42.4677C135.468 41.0775 136.449 40.2831 138.041 40.2831H139.573C139.937 40.2831 140.08 40.1231 140.08 39.8418V39.7259H140.086ZM140.086 41.905V41.2871C139.942 41.3975 139.689 41.4471 139.325 41.4471H138.377C137.54 41.4471 137.115 41.8112 137.115 42.4126C137.115 42.9642 137.529 43.4718 138.377 43.4718C139.265 43.4718 140.086 43.0139 140.086 41.905Z" fill="#FCFAF9"/>
<path d="M145.585 34.5016V37.3814H147.26V38.6778H145.585V42.6775C145.585 43.1685 145.949 43.2622 146.313 43.2622C146.864 43.2622 147.277 43.196 147.277 43.196V44.509C147.277 44.509 146.5 44.5863 145.916 44.5863C145.062 44.5863 144.004 44.4097 144.004 43.0195V38.6723H142.835V37.3758H144.004V34.4961H145.585V34.5016Z" fill="#FCFAF9"/>
<path d="M150.611 44.5212H149.03V38.6789H147.955V37.3825H150.611V44.5212ZM149.724 33.6973C150.341 33.6973 150.848 34.2048 150.848 34.8227C150.848 35.4406 150.341 35.9316 149.724 35.9316C149.107 35.9316 148.616 35.4406 148.616 34.8227C148.616 34.2048 149.107 33.6973 149.724 33.6973Z" fill="#FCFAF9"/>
<path d="M155.461 43.0135L157.373 37.3809H159.048L156.425 44.514H154.436L151.906 37.3809H153.659L155.461 43.0135Z" fill="#FCFAF9"/>
<path d="M164.168 39.7259C164.168 38.9646 163.6 38.5729 162.68 38.5729C161.903 38.5729 161.208 38.9039 160.674 39.3342L159.93 38.1647C160.531 37.6406 161.539 37.1992 162.79 37.1992C164.669 37.1992 165.744 38.2419 165.744 39.7645V44.5255H164.162V43.7807C163.749 44.4427 162.867 44.7131 162.123 44.7131C160.498 44.7131 159.55 43.7807 159.55 42.4677C159.55 41.0775 160.531 40.2831 162.123 40.2831H163.655C164.019 40.2831 164.162 40.1231 164.162 39.8418V39.7259H164.168ZM164.168 41.905V41.2871C164.024 41.3975 163.771 41.4471 163.407 41.4471H162.459C161.622 41.4471 161.197 41.8112 161.197 42.4126C161.197 42.9642 161.611 43.4718 162.459 43.4718C163.347 43.4718 164.168 43.0139 164.168 41.905Z" fill="#FCFAF9"/>
<path d="M171.717 39.3118C171.177 38.7877 170.389 38.5395 169.855 38.5395C169.238 38.5395 168.924 38.8705 168.924 39.2015C168.924 39.5987 169.1 39.7862 169.585 39.9628L170.819 40.3876C172.147 40.8455 172.698 41.5737 172.698 42.4619C172.698 43.6038 171.828 44.7072 170.042 44.7072C168.874 44.7072 167.717 44.2328 167.039 43.5818L167.97 42.3626C168.51 42.8977 169.342 43.2949 170.009 43.2949C170.643 43.2949 171.051 43.0246 171.051 42.5998C171.051 42.1419 170.83 41.9543 170.037 41.684L168.852 41.2702C167.854 40.9227 167.303 40.1779 167.303 39.2952C167.303 38.2526 168.202 37.1934 169.91 37.1934C170.748 37.1934 171.872 37.5244 172.61 38.2195L171.717 39.3118Z" fill="#FCFAF9"/>
<path d="M81.3244 61.2426H81.0103L78.4644 54.1094H80.2333L82.0188 59.7254L83.8814 54.1094H85.5732L82.5533 62.4011C82.1731 63.4272 81.5724 64.0009 80.3105 64.0009H79.2028V62.7045H80.0735C80.6411 62.7045 80.9111 62.5169 81.115 61.899L81.3244 61.2426Z" fill="#FCFAF9"/>
<path d="M91.8445 51.2282V54.1079H93.5197V55.4044H91.8445V59.404C91.8445 59.895 92.2082 59.9888 92.5719 59.9888C93.123 59.9888 93.5363 59.9226 93.5363 59.9226V61.2356C93.5363 61.2356 92.7593 61.3128 92.1751 61.3128C91.321 61.3128 90.2629 61.1363 90.2629 59.7461V55.3988H89.0946V54.1024H90.2629V51.2227H91.8445V51.2282Z" fill="#FCFAF9"/>
<path d="M101.786 58.1529H96.176C96.3027 59.2452 97.0632 60.0507 98.1819 60.0507C98.8597 60.0507 99.4935 59.7803 99.8572 59.2287L101.643 59.2783C101.009 60.6851 99.6974 61.4298 98.1819 61.4298C96.0658 61.4298 94.5007 59.8465 94.5007 57.6674C94.5007 55.4828 96.0327 53.916 98.1378 53.916C100.05 53.916 101.786 55.1959 101.786 58.1419V58.1529ZM96.176 56.9999H100.017C99.9398 56.0841 99.1959 55.2897 98.1544 55.2897C97.0908 55.2897 96.3634 55.9903 96.176 56.9999Z" fill="#FCFAF9"/>
<path d="M106.492 60.0562C107.313 60.0562 107.947 59.659 108.311 59.0135L109.672 59.7086C109.104 60.7678 107.853 61.4354 106.498 61.4354C104.382 61.4354 102.723 59.8686 102.723 57.684C102.723 55.4828 104.382 53.916 106.498 53.916C107.859 53.916 109.104 54.578 109.672 55.6428L108.311 56.3379C107.947 55.6869 107.313 55.2952 106.492 55.2952C105.197 55.2952 104.31 56.3213 104.31 57.684C104.315 59.0411 105.197 60.0562 106.492 60.0562Z" fill="#FCFAF9"/>
<path d="M112.609 54.5173C112.609 54.7215 112.609 54.8483 112.592 54.9918C113.193 54.2967 114.014 53.916 114.918 53.916C116.593 53.916 117.574 54.9587 117.574 56.5916V61.2423H115.993V56.8123C115.993 55.7972 115.375 55.3228 114.587 55.3228C113.91 55.3228 113.243 55.6703 112.642 56.3655V61.2368H111.077V54.1036H112.609V54.5173Z" fill="#FCFAF9"/>
<path d="M122.787 53.916C124.887 53.916 126.595 55.4828 126.595 57.6674C126.595 59.8521 124.887 61.4298 122.787 61.4298C120.688 61.4298 118.996 59.8465 118.996 57.6674C118.99 55.4828 120.682 53.916 122.787 53.916ZM122.787 55.2897C121.492 55.2897 120.589 56.3048 120.589 57.6619C120.589 59.0245 121.487 60.0507 122.787 60.0507C124.082 60.0507 124.986 59.0245 124.986 57.6619C124.981 56.3048 124.082 55.2897 122.787 55.2897Z" fill="#FCFAF9"/>
<path d="M129.703 61.2416H128.138V50.164H129.703V61.2416Z" fill="#FCFAF9"/>
<path d="M135.049 53.916C137.148 53.916 138.857 55.4828 138.857 57.6674C138.857 59.8521 137.148 61.4298 135.049 61.4298C132.949 61.4298 131.257 59.8465 131.257 57.6674C131.252 55.4828 132.944 53.916 135.049 53.916ZM135.049 55.2897C133.754 55.2897 132.85 56.3048 132.85 57.6619C132.85 59.0245 133.748 60.0507 135.049 60.0507C136.344 60.0507 137.248 59.0245 137.248 57.6619C137.242 56.3048 136.344 55.2897 135.049 55.2897Z" fill="#FCFAF9"/>
<path d="M147.421 54.1032V61.8046C147.421 62.9135 146.869 63.9893 145.178 63.9893H142.191V62.6928H144.941C145.365 62.6928 145.839 62.5825 145.839 61.9315V60.1772C145.459 60.8723 144.494 61.3964 143.453 61.3964C141.397 61.3964 139.882 59.8462 139.882 57.6616C139.882 55.4604 141.37 53.9102 143.436 53.9102C144.478 53.9102 145.459 54.4508 145.855 55.1625C145.855 55.0025 145.839 54.8315 145.839 54.6108V54.1032H147.421ZM143.69 60.0558C145.001 60.0558 145.9 59.0297 145.9 57.6671C145.9 56.2879 145.001 55.2618 143.69 55.2618C142.395 55.2618 141.491 56.2879 141.491 57.6671C141.491 59.0242 142.395 60.0558 143.69 60.0558Z" fill="#FCFAF9"/>
<path d="M151.306 61.2416H149.741V55.4049H148.649V54.1084H151.306V61.2416ZM149.884 50.164H151.846L150.484 52.8396H148.969L149.884 50.164Z" fill="#FCFAF9"/>
<path d="M157.34 56.4466C157.34 55.6853 156.772 55.2936 155.852 55.2936C155.075 55.2936 154.381 55.6246 153.846 56.0549L153.102 54.8854C153.703 54.3613 154.711 53.9199 155.962 53.9199C157.841 53.9199 158.916 54.9626 158.916 56.4852V61.2462H157.334V60.5014C156.921 61.1634 156.039 61.4338 155.295 61.4338C153.67 61.4338 152.722 60.5014 152.722 59.1884C152.722 57.7982 153.703 57.0038 155.295 57.0038H156.827C157.191 57.0038 157.334 56.8438 157.334 56.5625V56.4466H157.34ZM157.34 58.6312V58.0134C157.197 58.1237 156.943 58.1733 156.579 58.1733H155.632C154.794 58.1733 154.37 58.5375 154.37 59.1388C154.37 59.6905 154.783 60.198 155.632 60.198C156.519 60.1925 157.34 59.7346 157.34 58.6312Z" fill="#FCFAF9"/>
</svg>
