<svg width="49" height="48" viewBox="0 0 49 48" fill="none" xmlns="http://www.w3.org/2000/svg">
<path fill-rule="evenodd" clip-rule="evenodd" d="M4.18134 3.51472C0.666626 7.02944 0.666626 12.6863 0.666626 24C0.666626 35.3137 0.666626 40.9706 4.18134 44.4853C7.69606 48 13.3529 48 24.6666 48C35.9803 48 41.6372 48 45.1519 44.4853C48.6666 40.9706 48.6666 35.3137 48.6666 24C48.6666 12.6863 48.6666 7.02944 45.1519 3.51472C41.6372 0 35.9803 0 24.6666 0C13.3529 0 7.69606 0 4.18134 3.51472ZM20.5503 33.0751L34.826 24.5765C35.3163 24.2846 35.314 23.5738 34.8218 23.2851L20.5461 14.9124C20.0461 14.6192 19.4166 14.9797 19.4166 15.5594V32.4307C19.4166 33.0125 20.0503 33.3727 20.5503 33.0751Z" fill="#757778"/>
</svg>
