<svg width="160" height="99" viewBox="0 0 160 99" fill="none" xmlns="http://www.w3.org/2000/svg">
<path d="M67.2114 3.37973C75.1445 -1.12657 84.8555 -1.12658 92.7886 3.37972L101.526 8.34269C105.429 10.56 109.839 11.7245 114.326 11.7224L132.479 11.714C140.15 11.7104 146.368 17.9486 146.357 25.6376L146.356 25.8994C146.349 30.7589 148.957 35.2447 153.178 37.6348C162.274 42.7847 162.274 55.9166 153.178 61.0665C148.957 63.4566 146.349 67.9424 146.356 72.8019L146.357 73.0637C146.368 80.7527 140.15 86.9909 132.479 86.9873L114.326 86.9789C109.839 86.9768 105.429 88.1413 101.526 90.3586L92.7886 95.3216C84.8555 99.8279 75.1445 99.8279 67.2114 95.3216L58.4744 90.3586C54.571 88.1413 50.1605 86.9768 45.6739 86.9789L27.521 86.9873C19.8498 86.9909 13.6324 80.7527 13.6435 73.0637L13.6439 72.8019C13.6509 67.9424 11.0432 63.4566 6.82194 61.0665C-2.27398 55.9166 -2.27398 42.7847 6.82194 37.6348C11.0432 35.2447 13.6509 30.7589 13.6439 25.8994L13.6435 25.6376C13.6324 17.9486 19.8498 11.7104 27.521 11.714L45.6739 11.7224C50.1605 11.7245 54.571 10.56 58.4745 8.3427L67.2114 3.37973Z" fill="#FFAD20"/>
<path fill-rule="evenodd" clip-rule="evenodd" d="M50.34 16.2228C49.8576 16.2635 49.3733 16.2904 48.8877 16.3034C48.6593 16.3095 48.4306 16.3125 48.2017 16.3124L44.8255 16.3109C44.8248 17.9176 46.1267 19.2206 47.7333 19.2213L48.2005 19.2215C48.4557 19.2216 48.7107 19.2182 48.9653 19.2114C50.5714 19.1686 51.8386 17.8318 51.7958 16.2258C51.7943 16.1696 51.7912 16.1138 51.7866 16.0585C51.3068 16.1271 50.8244 16.1819 50.34 16.2228ZM56.7792 14.8124C56.8018 14.8647 56.826 14.9167 56.852 14.9683C57.5736 16.4037 59.3223 16.9824 60.7578 16.2607C60.9863 16.1458 61.2133 16.0277 61.4387 15.9063L61.8883 15.6642C63.303 14.9026 63.8323 13.1384 63.0707 11.7237L60.0596 13.3449C59.8582 13.4533 59.6553 13.5589 59.4511 13.6616C59.0177 13.8795 58.578 14.0844 58.1327 14.2762C57.6869 14.4681 57.2355 14.6469 56.7792 14.8124ZM65.1421 10.6085C65.9037 12.0231 67.668 12.5525 69.0826 11.7908L69.5322 11.5487C69.6506 11.485 69.7695 11.4224 69.8888 11.361C71.2661 10.6523 71.8381 8.99658 71.2187 7.59845C70.7649 7.76779 70.3151 7.95076 69.8702 8.14735C69.4278 8.34286 68.9901 8.55185 68.5577 8.77431C68.4223 8.84398 68.2875 8.91498 68.1532 8.9873L65.1421 10.6085ZM72.6288 7.12C72.9897 8.60745 74.4539 9.57198 75.9786 9.29313C76.2438 9.24464 76.5097 9.20098 76.7763 9.16217C78.3105 8.93877 79.3896 7.55599 79.2553 6.03076C78.7702 6.04503 78.2855 6.07325 77.8019 6.11542C77.319 6.15752 76.8372 6.21353 76.3571 6.28344C76.0557 6.32731 75.7551 6.37667 75.4553 6.4315C74.9787 6.51866 74.5042 6.61966 74.0326 6.73451C73.5616 6.8492 73.0934 6.9777 72.6288 7.12ZM80.7446 6.03076C80.6102 7.55599 81.6894 8.93877 83.2236 9.16217C83.4902 9.20098 83.7561 9.24463 84.0212 9.29312C85.5459 9.57197 87.0102 8.60745 87.3711 7.12C86.9064 6.9777 86.4382 6.8492 85.9672 6.7345C85.4956 6.61966 85.0212 6.51866 84.5446 6.43149C84.2448 6.37666 83.9441 6.32731 83.6428 6.28343C83.1627 6.21353 82.6808 6.15752 82.1979 6.11542C81.7143 6.07325 81.2296 6.04503 80.7446 6.03076ZM88.7812 7.59845C88.1618 8.99658 88.7338 10.6523 90.111 11.361C90.2304 11.4224 90.3492 11.485 90.4676 11.5487L90.9172 11.7908C92.3319 12.5525 94.0961 12.0231 94.8578 10.6085L91.8467 8.98729C91.7124 8.91497 91.5775 8.84398 91.4421 8.7743C91.0098 8.55184 90.5721 8.34285 90.1296 8.14734C89.6847 7.95075 89.235 7.76779 88.7812 7.59845ZM96.9292 11.7237C96.1675 13.1384 96.6969 14.9026 98.1115 15.6642L98.5611 15.9063C98.7866 16.0277 99.0136 16.1458 99.2421 16.2607C100.678 16.9824 102.426 16.4037 103.148 14.9683C103.174 14.9167 103.198 14.8647 103.221 14.8124C102.764 14.6469 102.313 14.4681 101.867 14.2762C101.422 14.0844 100.982 13.8795 100.549 13.6616C100.345 13.5589 100.142 13.4533 99.9402 13.3449L96.9292 11.7237ZM108.213 16.0585C108.209 16.1138 108.206 16.1696 108.204 16.2258C108.161 17.8318 109.428 19.1686 111.035 19.2114C111.289 19.2182 111.544 19.2216 111.799 19.2215L112.267 19.2213C113.873 19.2206 115.175 17.9176 115.174 16.3109L111.798 16.3124C111.569 16.3125 111.341 16.3095 111.112 16.3034C110.627 16.2904 110.142 16.2635 109.66 16.2228C109.175 16.1819 108.693 16.1271 108.213 16.0585ZM116.83 16.3102C116.831 17.9168 118.134 19.2187 119.74 19.218L120.675 19.2176C122.281 19.2169 123.583 17.9139 123.582 16.3072L116.83 16.3102ZM125.238 16.3065C125.239 17.9131 126.542 19.215 128.148 19.2143L128.615 19.2141C128.76 19.214 128.904 19.2168 129.047 19.2225C130.547 19.2816 131.827 18.1944 132.04 16.7421C131.574 16.62 131.096 16.5223 130.61 16.4505C130.136 16.3804 129.652 16.335 129.162 16.3157C128.98 16.3085 128.798 16.3049 128.614 16.305L125.238 16.3065ZM134.768 17.7904C133.953 19.0024 134.161 20.6597 135.3 21.6281C135.515 21.8109 135.721 22.0021 135.918 22.2012C136.967 23.2614 138.629 23.3465 139.776 22.4501C139.524 22.0333 139.247 21.6319 138.948 21.2478C138.65 20.866 138.329 20.5014 137.987 20.1557C137.731 19.8967 137.463 19.6484 137.184 19.4114C136.816 19.0985 136.429 18.8054 136.024 18.5339C135.622 18.2641 135.203 18.0157 134.768 17.7904ZM140.965 25.1152C139.54 25.3581 138.485 26.631 138.552 28.1132C138.558 28.2498 138.561 28.3874 138.561 28.5259L138.561 28.5387C138.56 28.5729 138.561 28.6069 138.562 28.6408C138.561 28.6747 138.56 28.7088 138.56 28.743L138.56 28.7557C138.56 29.0528 138.569 29.3487 138.587 29.6431C138.685 31.2468 140.064 32.4672 141.668 32.369C141.795 32.3612 141.92 32.3453 142.042 32.322C141.945 32.0303 141.86 31.7344 141.788 31.435C141.745 31.2606 141.707 31.0851 141.673 30.9084C141.615 30.6073 141.569 30.303 141.535 29.9962C141.516 29.82 141.501 29.643 141.49 29.4653C141.476 29.2314 141.469 28.9963 141.469 28.7601L141.47 28.5303C141.47 28.3468 141.466 28.1642 141.458 27.9826C141.447 27.7514 141.43 27.5219 141.406 27.2942C141.38 27.0392 141.345 26.7865 141.302 26.5364C141.263 26.3067 141.217 26.0792 141.164 25.8541C141.106 25.6048 141.04 25.3584 140.965 25.1152ZM144.889 36.9151C144.82 37.004 144.755 37.0978 144.694 37.1965C143.857 38.5675 144.289 40.3579 145.66 41.1956C145.906 41.3459 146.157 41.4899 146.413 41.6274C146.523 41.6863 146.631 41.7465 146.736 41.808C148.027 42.5606 149.657 42.2078 150.53 41.0387C150.184 40.7084 149.812 40.3938 149.415 40.0972C149.034 39.8125 148.629 39.5444 148.201 39.295C148.066 39.2161 147.929 39.1391 147.789 39.0641C147.58 38.9523 147.376 38.8352 147.177 38.7132C146.759 38.4579 146.36 38.1806 145.982 37.8837C145.596 37.5807 145.231 37.2571 144.889 36.9151ZM151.664 42.2846C150.424 43.0237 149.898 44.5868 150.49 45.9445C150.584 46.1591 150.668 46.3767 150.743 46.5968C151.221 47.9986 152.664 48.7984 154.077 48.5084C154.042 48.0233 153.975 47.5399 153.877 47.0614C153.781 46.5877 153.654 46.1187 153.496 45.6576C153.396 45.3621 153.282 45.0699 153.157 44.7817C152.964 44.3401 152.742 43.908 152.491 43.4881C152.244 43.0741 151.968 42.672 151.664 42.2846ZM154.077 50.1934C152.664 49.9035 151.221 50.7033 150.743 52.1051C150.668 52.3252 150.584 52.5428 150.49 52.7574C149.898 54.115 150.424 55.6781 151.664 56.4172C151.968 56.0299 152.244 55.6278 152.491 55.2137C152.742 54.7939 152.964 54.3618 153.157 53.9202C153.282 53.632 153.396 53.3397 153.496 53.0443C153.654 52.5832 153.781 52.1142 153.877 51.6404C153.975 51.162 154.042 50.6786 154.077 50.1934ZM150.53 57.6632C149.657 56.494 148.027 56.1412 146.736 56.8939C146.631 56.9554 146.523 57.0156 146.413 57.0745C146.157 57.2119 145.906 57.3559 145.66 57.5063C144.289 58.3439 143.857 60.1344 144.694 61.5054C144.755 61.6041 144.82 61.6979 144.889 61.7867C145.231 61.4448 145.596 61.1212 145.982 60.8182C146.36 60.5212 146.759 60.244 147.177 59.9887C147.376 59.8666 147.58 59.7496 147.789 59.6378C147.929 59.5627 148.066 59.4857 148.201 59.4069C148.629 59.1575 149.034 58.8894 149.415 58.6046C149.812 58.3081 150.184 57.9935 150.53 57.6632ZM142.042 66.3799C141.92 66.3565 141.795 66.3407 141.668 66.3329C140.064 66.2347 138.685 67.4551 138.587 69.0587C138.569 69.3532 138.56 69.6491 138.56 69.9461L138.56 69.9589C138.56 69.9931 138.561 70.0271 138.562 70.061C138.561 70.0949 138.56 70.129 138.561 70.1632L138.561 70.176C138.561 70.3145 138.558 70.452 138.552 70.5886C138.485 72.0708 139.54 73.3438 140.965 73.5867C141.04 73.3434 141.106 73.097 141.164 72.8478C141.217 72.6226 141.263 72.3951 141.302 72.1655C141.345 71.9154 141.38 71.6627 141.406 71.4077C141.43 71.18 141.447 70.9505 141.458 70.7193C141.466 70.5377 141.47 70.3551 141.47 70.1716L141.469 69.9417C141.469 69.7056 141.476 69.4704 141.49 69.2365C141.501 69.0588 141.516 68.8818 141.535 68.7057C141.569 68.3989 141.615 68.0946 141.673 67.7935C141.707 67.6168 141.745 67.4412 141.788 67.2669C141.86 66.9675 141.945 66.6716 142.042 66.3799ZM139.776 76.2518C138.629 75.3553 136.967 75.4404 135.918 76.5007C135.721 76.6997 135.515 76.891 135.3 77.0738C134.161 78.0421 133.953 79.6995 134.768 80.9115C135.203 80.6862 135.622 80.4377 136.024 80.1679C136.429 79.8965 136.816 79.6034 137.184 79.2905C137.463 79.0535 137.731 78.8052 137.987 78.5462C138.329 78.2005 138.65 77.8358 138.948 77.4541C139.247 77.07 139.524 76.6686 139.776 76.2518ZM132.04 81.9598C131.827 80.5075 130.547 79.4203 129.047 79.4794C128.904 79.485 128.76 79.4878 128.615 79.4878L128.148 79.4876C126.542 79.4869 125.239 80.7887 125.238 82.3954L128.614 82.3969C128.798 82.3969 128.98 82.3934 129.162 82.3862C129.652 82.3669 130.136 82.3214 130.61 82.2513C131.096 82.1795 131.574 82.0818 132.04 81.9598ZM123.582 82.3947C123.583 80.788 122.281 79.485 120.675 79.4843L119.74 79.4839C118.134 79.4832 116.831 80.785 116.83 82.3917L123.582 82.3947ZM115.174 82.391C115.175 80.7843 113.873 79.4813 112.267 79.4806L111.799 79.4804C111.544 79.4803 111.289 79.4836 111.035 79.4904C109.428 79.5333 108.161 80.87 108.204 82.4761C108.206 82.5323 108.209 82.5881 108.213 82.6434C108.693 82.5748 109.175 82.52 109.66 82.4791C110.142 82.4384 110.627 82.4114 111.112 82.3985C111.341 82.3924 111.569 82.3894 111.798 82.3895L115.174 82.391ZM103.221 83.8895C103.198 83.8372 103.174 83.7852 103.148 83.7336C102.426 82.2981 100.678 81.7195 99.2421 82.4411C99.0136 82.556 98.7866 82.6742 98.5611 82.7955L98.1115 83.0376C96.6969 83.7993 96.1675 85.5635 96.9292 86.9781L99.9402 85.357C100.142 85.2485 100.345 85.1429 100.549 85.0403C100.982 84.8224 101.422 84.6174 101.867 84.4257C102.313 84.2337 102.764 84.0549 103.221 83.8895ZM94.8578 88.0934C94.0961 86.6788 92.3319 86.1494 90.9172 86.9111L90.4676 87.1531C90.3492 87.2169 90.2304 87.2794 90.111 87.3409C88.7338 88.0496 88.1618 89.7053 88.7811 91.1034C89.235 90.9341 89.6847 90.7511 90.1296 90.5545C90.5721 90.359 91.0098 90.15 91.4421 89.9276C91.5775 89.8579 91.7124 89.7869 91.8467 89.7146L94.8578 88.0934ZM87.3711 91.5819C87.0102 90.0944 85.5459 89.1299 84.0212 89.4087C83.7561 89.4572 83.4902 89.5009 83.2236 89.5397C81.6894 89.7631 80.6102 91.1459 80.7446 92.6711C81.2296 92.6568 81.7143 92.6286 82.1979 92.5864C82.6808 92.5443 83.1626 92.4883 83.6428 92.4184C83.9441 92.3746 84.2448 92.3252 84.5446 92.2704C85.0211 92.1832 85.4956 92.0822 85.9672 91.9674C86.4382 91.8527 86.9064 91.7242 87.3711 91.5819ZM79.2553 92.6711C79.3896 91.1459 78.3105 89.7631 76.7763 89.5397C76.5097 89.5009 76.2438 89.4572 75.9786 89.4087C74.4539 89.1299 72.9897 90.0944 72.6288 91.5819C73.0934 91.7242 73.5616 91.8527 74.0326 91.9674C74.5042 92.0822 74.9787 92.1832 75.4553 92.2704C75.7551 92.3252 76.0557 92.3745 76.3571 92.4184C76.8372 92.4883 77.319 92.5443 77.8019 92.5864C78.2855 92.6286 78.7702 92.6568 79.2553 92.6711ZM71.2187 91.1034C71.8381 89.7053 71.2661 88.0496 69.8888 87.3409C69.7695 87.2794 69.6506 87.2169 69.5322 87.1531L69.0826 86.911C67.668 86.1494 65.9037 86.6787 65.1421 88.0934L68.1532 89.7146C68.2875 89.7869 68.4224 89.8579 68.5578 89.9276C68.9901 90.15 69.4278 90.359 69.8703 90.5545C70.3152 90.7511 70.7649 90.9341 71.2187 91.1034ZM63.0707 86.9781C63.8323 85.5635 63.303 83.7993 61.8883 83.0376L61.4387 82.7955C61.2133 82.6742 60.9863 82.556 60.7578 82.4411C59.3223 81.7195 57.5736 82.2981 56.852 83.7336C56.826 83.7852 56.8018 83.8372 56.7792 83.8895C57.2355 84.0549 57.6869 84.2337 58.1327 84.4257C58.578 84.6174 59.0177 84.8224 59.4511 85.0403C59.6553 85.1429 59.8582 85.2485 60.0596 85.3569L63.0707 86.9781ZM51.7866 82.6434C51.7912 82.588 51.7943 82.5323 51.7958 82.4761C51.8386 80.87 50.5714 79.5333 48.9653 79.4904C48.7107 79.4836 48.4557 79.4803 48.2005 79.4804L47.7333 79.4806C46.1267 79.4813 44.8248 80.7843 44.8255 82.391L48.2017 82.3895C48.4306 82.3894 48.6593 82.3924 48.8877 82.3985C49.3733 82.4114 49.8576 82.4384 50.34 82.4791C50.8244 82.52 51.3068 82.5748 51.7866 82.6434ZM43.1699 82.3917C43.1692 80.785 41.8662 79.4832 40.2595 79.4839L39.3253 79.4843C37.7187 79.485 36.4168 80.788 36.4175 82.3947L43.1699 82.3917ZM34.7619 82.3954C34.7612 80.7887 33.4582 79.4869 31.8515 79.4876L31.3844 79.4878C31.2395 79.4878 31.0955 79.485 30.9524 79.4794C29.4525 79.4203 28.1733 80.5075 27.9599 81.9598C28.4263 82.0818 28.9034 82.1795 29.3895 82.2513C29.8642 82.3214 30.3474 82.3669 30.8378 82.3862C31.0195 82.3934 31.2021 82.3969 31.3857 82.3969L34.7619 82.3954ZM25.2317 80.9115C26.0471 79.6995 25.8391 78.0421 24.6997 77.0738C24.4846 76.891 24.2784 76.6997 24.0816 76.5007C23.0331 75.4404 21.3711 75.3553 20.2242 76.2518C20.4758 76.6686 20.7524 77.07 21.0523 77.4541C21.3503 77.8358 21.6712 78.2005 22.0131 78.5462C22.2691 78.8052 22.537 79.0535 22.8158 79.2904C23.184 79.6034 23.5713 79.8965 23.9759 80.1679C24.3781 80.4377 24.7973 80.6862 25.2317 80.9115ZM19.0344 73.5867C20.4602 73.3438 21.5149 72.0708 21.4482 70.5886C21.4421 70.452 21.4391 70.3145 21.4393 70.176L21.4393 70.1632C21.4394 70.129 21.4388 70.095 21.4377 70.0611C21.4389 70.0272 21.4396 69.9931 21.4396 69.9589L21.4397 69.9462C21.4401 69.6491 21.4312 69.3531 21.4132 69.0587C21.315 67.4551 19.9354 66.2347 18.3317 66.3329C18.2046 66.3407 18.0798 66.3565 17.9579 66.3799C18.0545 66.6716 18.1394 66.9675 18.2122 67.2669C18.2545 67.4412 18.2928 67.6168 18.3269 67.7935C18.385 68.0946 18.4309 68.3989 18.4644 68.7057C18.4836 68.8818 18.4987 69.0588 18.5095 69.2365C18.5239 69.4704 18.5309 69.7056 18.5306 69.9417L18.5302 70.1715C18.5299 70.3551 18.5339 70.5377 18.5421 70.7193C18.5525 70.9505 18.5696 71.18 18.5934 71.4077C18.62 71.6627 18.6548 71.9154 18.6977 72.1655C18.737 72.3951 18.7831 72.6226 18.8358 72.8478C18.894 73.097 18.9603 73.3434 19.0344 73.5867ZM15.1105 61.7867C15.1801 61.6979 15.2453 61.6041 15.3056 61.5054C16.1433 60.1344 15.711 58.3439 14.34 57.5063C14.0939 57.3559 13.8428 57.2119 13.5866 57.0745C13.4769 57.0156 13.3693 56.9554 13.2639 56.8939C11.9733 56.1412 10.3426 56.494 9.46946 57.6632C9.81612 57.9935 10.188 58.3081 10.585 58.6046C10.9662 58.8894 11.3707 59.1575 11.7984 59.4069C11.9336 59.4857 12.0712 59.5627 12.211 59.6378C12.4194 59.7496 12.6235 59.8666 12.8232 59.9887C13.2411 60.244 13.6399 60.5212 14.0181 60.8182C14.404 61.1212 14.7686 61.4448 15.1105 61.7867ZM8.3362 56.4172C9.57577 55.6781 10.1017 54.115 9.50968 52.7574C9.41609 52.5428 9.33177 52.3252 9.25671 52.1051C8.77855 50.7033 7.33626 49.9035 5.92249 50.1934C5.95823 50.6786 6.0249 51.162 6.1225 51.6404C6.21914 52.1142 6.3461 52.5832 6.50338 53.0443C6.60417 53.3397 6.7174 53.632 6.84308 53.9202C7.03563 54.3618 7.25739 54.7939 7.50838 55.2137C7.7559 55.6278 8.03184 56.0299 8.3362 56.4172ZM5.92249 48.5084C7.33626 48.7984 8.77855 47.9986 9.25671 46.5968C9.33177 46.3767 9.41609 46.1591 9.50968 45.9445C10.1017 44.5868 9.57577 43.0237 8.3362 42.2846C8.03184 42.672 7.7559 43.0741 7.50838 43.4881C7.25739 43.908 7.03563 44.3401 6.84308 44.7817C6.7174 45.0699 6.60417 45.3621 6.50338 45.6576C6.3461 46.1187 6.21914 46.5877 6.1225 47.0614C6.0249 47.5399 5.95823 48.0233 5.92249 48.5084ZM9.46946 41.0387C10.3426 42.2079 11.9733 42.5606 13.2639 41.808C13.3693 41.7465 13.4769 41.6863 13.5866 41.6274C13.8428 41.4899 14.0939 41.3459 14.34 41.1956C15.711 40.3579 16.1433 38.5675 15.3056 37.1965C15.2453 37.0978 15.1801 37.004 15.1105 36.9151C14.7686 37.2571 14.404 37.5807 14.0181 37.8837C13.6399 38.1806 13.2411 38.4579 12.8232 38.7132C12.6235 38.8352 12.4194 38.9523 12.211 39.0641C12.0712 39.1391 11.9336 39.2161 11.7984 39.295C11.3707 39.5444 10.9662 39.8125 10.585 40.0972C10.188 40.3938 9.81612 40.7084 9.46946 41.0387ZM17.9579 32.322C18.0798 32.3453 18.2046 32.3612 18.3317 32.369C19.9354 32.4672 21.315 31.2468 21.4132 29.6431C21.4312 29.3487 21.4401 29.0528 21.4397 28.7557L21.4396 28.7429C21.4396 28.7088 21.4389 28.6747 21.4377 28.6408C21.4388 28.6069 21.4394 28.5728 21.4393 28.5387L21.4393 28.5259C21.4391 28.3874 21.4421 28.2498 21.4482 28.1132C21.5149 26.631 20.4602 25.3581 19.0344 25.1152C18.9603 25.3584 18.894 25.6048 18.8358 25.8541C18.7831 26.0792 18.737 26.3067 18.6977 26.5364C18.6548 26.7865 18.62 27.0392 18.5934 27.2942C18.5696 27.5219 18.5525 27.7514 18.5421 27.9826C18.5339 28.1642 18.5299 28.3468 18.5302 28.5303L18.5306 28.7601C18.5309 28.9963 18.5239 29.2314 18.5095 29.4653C18.4987 29.643 18.4836 29.82 18.4644 29.9962C18.4309 30.303 18.385 30.6073 18.3269 30.9084C18.2928 31.0851 18.2545 31.2606 18.2122 31.435C18.1394 31.7344 18.0545 32.0303 17.9579 32.322ZM20.2242 22.4501C21.3711 23.3465 23.0331 23.2614 24.0816 22.2012C24.2784 22.0021 24.4846 21.8109 24.6997 21.6281C25.8391 20.6597 26.0471 19.0024 25.2317 17.7904C24.7973 18.0157 24.3781 18.2641 23.9759 18.5339C23.5713 18.8054 23.184 19.0985 22.8158 19.4114C22.537 19.6484 22.2691 19.8967 22.0131 20.1557C21.6712 20.5014 21.3503 20.866 21.0523 21.2478C20.7524 21.6319 20.4757 22.0333 20.2242 22.4501ZM27.9599 16.7421C28.1733 18.1944 29.4525 19.2816 30.9524 19.2225C31.0955 19.2168 31.2395 19.214 31.3844 19.2141L31.8515 19.2143C33.4582 19.215 34.7612 17.9131 34.7619 16.3065L31.3857 16.305C31.2021 16.3049 31.0195 16.3085 30.8378 16.3157C30.3474 16.335 29.8642 16.3804 29.3895 16.4505C28.9034 16.5223 28.4263 16.62 27.9599 16.7421ZM36.4175 16.3072C36.4168 17.9139 37.7187 19.2169 39.3253 19.2176L40.2595 19.218C41.8662 19.2187 43.1692 17.9168 43.1699 16.3102L36.4175 16.3072Z" fill="#1B1F21"/>
<path d="M75.5906 71.715C75.5906 70.8644 75.7725 70.1277 76.1364 69.505C76.5149 68.867 77.0316 68.3734 77.6866 68.024C78.3416 67.6747 79.0839 67.5 79.9136 67.5C80.7578 67.5 81.5001 67.6747 82.1406 68.024C82.7956 68.3582 83.305 68.8442 83.6689 69.4822C84.0473 70.1049 84.2366 70.8492 84.2366 71.715C84.2366 72.5656 84.0473 73.3099 83.6689 73.9478C83.305 74.5706 82.7956 75.0566 82.1406 75.406C81.5001 75.7553 80.7578 75.93 79.9136 75.93C79.0839 75.93 78.3416 75.7629 77.6866 75.4288C77.0316 75.0794 76.5149 74.5858 76.1364 73.9478C75.7725 73.3099 75.5906 72.5656 75.5906 71.715ZM78.1232 71.715C78.1232 72.2466 78.2906 72.6719 78.6254 72.9909C78.9602 73.2947 79.3896 73.4466 79.9136 73.4466C80.423 73.4466 80.8451 73.2871 81.1799 72.9681C81.5292 72.6491 81.7039 72.2314 81.7039 71.715C81.7039 71.1834 81.5292 70.7657 81.1799 70.4619C80.8451 70.1429 80.423 69.9834 79.9136 69.9834C79.3896 69.9834 78.9602 70.1429 78.6254 70.4619C78.2906 70.7657 78.1232 71.1834 78.1232 71.715Z" fill="#1B1F21"/>
<path d="M75.5906 27.215C75.5906 26.3644 75.7725 25.6277 76.1364 25.005C76.5149 24.367 77.0316 23.8734 77.6866 23.524C78.3416 23.1747 79.0839 23 79.9136 23C80.7578 23 81.5001 23.1747 82.1406 23.524C82.7956 23.8582 83.305 24.3442 83.6689 24.9822C84.0473 25.6049 84.2366 26.3492 84.2366 27.215C84.2366 28.0656 84.0473 28.8099 83.6689 29.4478C83.305 30.0706 82.7956 30.5566 82.1406 30.906C81.5001 31.2553 80.7578 31.43 79.9136 31.43C79.0839 31.43 78.3416 31.2629 77.6866 30.9288C77.0316 30.5794 76.5149 30.0858 76.1364 29.4478C75.7725 28.8099 75.5906 28.0656 75.5906 27.215ZM78.1232 27.215C78.1232 27.7466 78.2906 28.1719 78.6254 28.4909C78.9602 28.7947 79.3896 28.9466 79.9136 28.9466C80.423 28.9466 80.8451 28.7871 81.1799 28.4681C81.5292 28.1491 81.7039 27.7314 81.7039 27.215C81.7039 26.6834 81.5292 26.2657 81.1799 25.9619C80.8451 25.6429 80.423 25.4834 79.9136 25.4834C79.3896 25.4834 78.9602 25.6429 78.6254 25.9619C78.2906 26.2657 78.1232 26.6834 78.1232 27.215Z" fill="#1B1F21"/>
<path d="M127.198 42.5C123.403 42.5 120.625 45.4399 120.625 49.4238C120.625 53.4409 123.384 56.4184 127.181 56.4184C128.983 56.4184 130.506 55.7998 131.578 54.7088C132.65 53.618 133.261 52.0662 133.261 50.2197V48.9201H125.841V51.3601H130.522C130.391 52.8668 129.021 53.8899 127.198 53.8899C126.006 53.8899 125.05 53.4506 124.391 52.6821C123.73 51.911 123.355 50.7948 123.355 49.4238C123.355 48.0727 123.745 46.9789 124.415 46.2249C125.083 45.4727 126.039 45.0461 127.198 45.0461C128.029 45.0461 128.714 45.2642 129.245 45.6598C129.776 46.0553 130.163 46.6362 130.384 47.3797L130.427 47.523L132.989 46.767L132.95 46.6252C132.268 44.1316 130.114 42.5 127.198 42.5Z" fill="#1B1F21"/>
<path d="M29.4457 42.6769H26.7389V56.2415H29.2818V46.6263L32.8452 51.4662H33.4731L37.0361 46.577V56.2415H39.596V42.6769H36.8882L33.2086 47.8065L29.4457 42.6769Z" fill="#1B1F21"/>
<path fill-rule="evenodd" clip-rule="evenodd" d="M48.8389 42.6769H46.0805L41.1109 56.2415H43.8107L45.2041 52.2798H49.6134L51.0068 56.2415H53.8086L48.8389 42.6769ZM48.7428 49.8221H46.0747L47.4088 46.0531L48.7428 49.8221Z" fill="#1B1F21"/>
<path fill-rule="evenodd" clip-rule="evenodd" d="M60.4246 42.6769H55.33V56.2415H57.9749V50.971H59.7801L63.0256 56.2415H66.0455L62.4642 50.4172C63.8548 49.8331 64.7717 48.586 64.7717 46.8239C64.7717 45.575 64.324 44.5348 63.5498 43.8074C62.7765 43.081 61.6886 42.6769 60.4246 42.6769ZM57.9749 48.4779V45.1699H60.3907C60.9367 45.1699 61.3684 45.3408 61.6628 45.6252C61.9567 45.9093 62.1268 46.3194 62.1268 46.8239C62.1268 47.3379 61.9564 47.7475 61.6632 48.0289C61.3693 48.3109 60.9377 48.4779 60.3907 48.4779H57.9749Z" fill="#1B1F21"/>
<path d="M70.2377 42.6769H67.5928V56.2415H70.2377V50.3874H71.3691L75.4812 56.2415H78.6331L73.6041 49.0215L78.498 42.6769H75.2973L71.4401 47.8059H70.2377V42.6769Z" fill="#1B1F21"/>
<path d="M88.65 42.6769H79.922V56.2415H88.8199V53.7484H82.5668V50.4227H86.7639V47.9297H82.5668V45.1699H88.65V42.6769Z" fill="#1B1F21"/>
<path d="M99.839 42.6769H89.7686V45.223H93.4728V56.2415H96.1177V45.223H99.839V42.6769Z" fill="#1B1F21"/>
<path d="M104.338 42.6769H101.693V56.2415H104.338V42.6769Z" fill="#1B1F21"/>
<path d="M110.066 42.6769H107.335V56.2415H109.844V46.8531L115.694 56.2415H118.425V42.6769H115.899V51.9965L110.066 42.6769Z" fill="#1B1F21"/>
</svg>
